<svg viewBox="0 0 648 630" fill="none" xmlns="http://www.w3.org/2000/svg">
  <rect width="648" height="630" rx="5" fill="#1C4583"/>
  <g clip-path="url(#clip0_5914_333620)" fill="#fff">
    <path d="M242.267 56.0078h-9.333c-2.981 0-5.315 2.3362-5.315 5.3215v9.3451c0 2.9853 2.334 5.3216 5.315 5.3216h9.333c2.982 0 5.315-2.3363 5.315-5.3216v-9.3451c0-2.9853-2.463-5.3215-5.315-5.3215Zm2.075 14.5369c0 1.1681-.908 2.0767-2.075 2.0767h-9.333c-1.167 0-2.074-.9086-2.074-2.0767v-9.3452c0-1.1681.907-2.0767 2.074-2.0767h9.333c1.167 0 2.075.9086 2.075 2.0767v9.3452Z"/>
    <path d="M266.249 48.4838h-11.148V37.3215c-.13-2.9852-2.463-5.3215-5.445-5.3215h-16.722c-2.981 0-5.315 2.3363-5.315 5.3215v9.0856c0 2.9853 2.334 5.3216 5.315 5.3216h18.797v18.82c0 2.9852 2.333 5.3215 5.315 5.3215h9.074c2.981 0 5.315-2.3363 5.315-5.3215V53.8054c0-2.8555-2.334-5.1918-5.186-5.3216Zm-33.315 0c-1.167 0-2.074-.9085-2.074-2.0767v-9.0856c0-1.1681.907-2.0767 2.074-2.0767h16.722c1.167 0 2.075.9086 2.075 2.0767v11.1623h-18.797Zm35.389 22.0649c0 1.1681-.907 2.0767-2.074 2.0767h-9.074c-1.167 0-2.074-.9086-2.074-2.0767v-18.82h11.148c1.167 0 2.074.9085 2.074 2.0767v16.7433ZM336.51 56.006l-4.149-11.1622h-4.537l6.482 15.5751-3.5 8.0473h4.278l9.852-23.6224h-4.279L336.51 56.006Zm19.444-3.6285c-.908-.3894-1.944-.6489-2.852-.9085-.907-.2596-1.685-.5192-2.463-.9086-.519-.2596-.778-.649-.778-1.1681 0-.5192.259-.9086.649-1.1682 1.166-.6489 2.463-.5192 3.629.1298.518.3894.778.9086.778 1.5575h3.889c0-1.5575-.778-2.9852-1.944-3.8938-1.297-1.0383-2.982-1.5575-4.538-1.4277-1.167 0-2.333.1298-3.37.649-.907.3893-1.685.9085-2.204 1.6873-.519.649-.777 1.5575-.777 2.4661 0 .9085.258 1.8171.777 2.5958.519.649 1.167 1.1682 1.944 1.4278.908.3894 1.945.6489 2.982.9085.907.2596 1.686.5192 2.593.9086.518.2596.777.649.777 1.1681 0 .5192-.259.9086-.647 1.1682-.519.3894-1.167.5192-1.816.5192-.647 0-1.426-.1298-1.944-.649-.519-.3894-.778-.9086-.907-1.5575h-4.019c0 1.0383.389 1.9469 1.037 2.7256.649.7788 1.556 1.5576 2.463 1.9469 1.167.5192 2.334.7788 3.5.7788 1.167 0 2.333-.1298 3.37-.649.909-.3894 1.686-.9085 2.204-1.6873.519-.7788.778-1.5575.778-2.4661 0-.9085-.259-1.8171-.907-2.5958-.778-.9086-1.426-1.298-2.204-1.5576Zm12.705-4.285c.778 0 1.425.1298 2.074.649.518.3894.907 1.0384 1.167 1.6873h4.407c-.388-1.6873-1.297-3.115-2.593-4.1534-1.425-1.0383-3.111-1.5575-4.925-1.4277-1.426 0-2.852.3894-4.149 1.0383-1.166.649-2.203 1.6874-2.852 2.8555-1.296 2.7257-1.296 5.9705 0 8.6962.649 1.1681 1.556 2.2065 2.852 2.8554 1.297.649 2.723 1.0384 4.149 1.0384 1.814 0 3.5-.5192 4.925-1.5575 1.296-1.0384 2.205-2.4661 2.593-4.1534h-4.278c-.389 1.4277-1.815 2.3363-3.24 2.2065-1.038 0-2.075-.3894-2.723-1.298-1.296-2.2065-1.296-4.9321 0-7.1386.518-.9086 1.555-1.4278 2.593-1.298Zm21.778-2.2009c0 .2596-.259.5192-.519.5192-.129 0-.259 0-.259-.1298-.388-.3894-.778-.6489-1.296-.9085-.908-.5192-2.074-.7787-3.111-.7787-1.297 0-2.593.3893-3.76 1.0383-1.166.6489-2.074 1.6873-2.592 2.8554-.648 1.298-1.037 2.8555-1.037 4.2832 0 1.5575.259 2.9853 1.037 4.413.518 1.1681 1.426 2.2065 2.592 2.9853 1.167.6489 2.334 1.0383 3.63 1.0383 1.037 0 2.204-.2596 3.112-.7788.907-.3893 1.555-1.0383 2.203-1.8171v2.3363h4.018V44.8533h-4.018v1.0383Zm-.519 9.475c-.388.649-.907 1.2979-1.555 1.6873-.648.3894-1.426.5192-2.074.5192-.778 0-1.426-.2596-2.074-.5192-.648-.3894-1.167-1.0383-1.556-1.6873-.388-.7788-.648-1.6873-.648-2.4661 0-.9086.13-1.6873.648-2.4661 1.167-2.0767 3.63-2.7257 5.704-1.6873h.129c.649.3894 1.167.9086 1.556 1.6873.649 1.5575.649 3.3747-.13 4.9322Zm-85.428-9.475c0 .2596-.259.5192-.518.5192-.13 0-.26 0-.26-.1298-.388-.3894-.777-.6489-1.296-.9085-.907-.5192-2.074-.7787-3.111-.7787-1.296 0-2.593.3893-3.759 1.0383-1.167.6489-2.074 1.6873-2.593 2.8554-.648 1.298-1.037 2.8555-1.037 4.2832 0 1.5575.259 2.9853 1.037 4.413.519 1.1681 1.426 2.2065 2.593 2.9853 1.166.6489 2.333 1.0383 3.629 1.0383 1.037 0 2.204-.2596 3.111-.7788.908-.3893 1.556-1.0383 2.204-1.8171v2.3363h4.019V44.8533h-4.019v1.0383Zm-.648 9.475c-.389.649-.907 1.2979-1.556 1.6873-.648.3894-1.425.5192-2.074.5192-.777 0-1.426-.2596-2.074-.5192-.648-.3894-1.166-1.0383-1.555-1.6873-.389-.7788-.648-1.6873-.648-2.4661 0-.9086.129-1.6873.648-2.4661 1.166-2.0767 3.629-2.7257 5.703-1.6873h.13c.648.3894 1.167.9086 1.556 1.6873.648 1.5575.648 3.3747-.13 4.9322Zm98.001-15.8354h-4.019v21.416h4.019v-21.416Zm18.538 12.9776c0-1.4277-.258-2.8554-1.037-4.1534-.648-1.1681-1.556-2.2065-2.851-2.7257-2.593-1.2979-5.705-1.2979-8.297 0-1.167.649-2.204 1.6874-2.852 2.8555-.778 1.4277-1.037 2.8555-1.037 4.413s.259 2.9853 1.037 4.2831c.648 1.1681 1.685 2.2065 2.852 2.8555 1.296.6489 2.722 1.0383 4.148 1.0383 1.686 0 3.37-.5192 4.797-1.4277 1.296-.9086 2.203-2.3363 2.592-3.7639h-4.148c-.518 1.2978-1.815 2.0766-3.241 1.9468-.907 0-1.944-.3894-2.593-1.0384-.777-.649-1.166-1.6872-1.166-2.7256h11.666c.13-.5191.13-1.0383.13-1.5575Zm-11.796-1.1681c.129-1.0384.519-1.9469 1.296-2.5959.778-.649 1.686-.9086 2.593-.9086 1.037 0 1.944.2596 2.722.9086s1.167 1.5575 1.167 2.4661l-7.778.1298Zm-87.889-6.7485c-.908 0-1.945.2596-2.722.649-.519.2596-1.038.5191-1.426.9085-.13.1298-.389.1298-.519 0s-.13-.1298-.13-.2596v-1.0383h-4.018v16.0944h4.018v-8.826c-.129-1.0383.26-2.0767 1.037-2.9852.649-.649 1.686-1.0384 2.593-1.0384.908 0 1.945.3894 2.593 1.0384.648.7787 1.037 1.8171.907 2.9852v8.826h4.019v-9.4749c.129-1.8171-.389-3.6343-1.685-5.062-1.167-1.1681-2.982-1.9469-4.667-1.8171Z"/>
  </g>
  <path d="M89.3491 119v-16.872h3.264V119h-3.264Zm2.4-6.912v-2.904h8.4959v2.904h-8.4959Zm0-7.08v-2.88h8.9039v2.88h-8.9039Zm16.0829 14.232c-1.024 0-1.936-.216-2.736-.648-.784-.432-1.4-1.032-1.848-1.8-.448-.768-.672-1.656-.672-2.664v-6.72h3.168v6.648c0 .48.08.896.24 1.248.16.336.4.592.72.768.32.176.696.264 1.128.264.656 0 1.168-.2 1.536-.6.368-.4.552-.96.552-1.68v-6.648h3.144v6.72c0 1.024-.224 1.92-.672 2.688-.432.768-1.048 1.368-1.848 1.8-.784.416-1.688.624-2.712.624Zm7.736-.24v-17.352h3.144V119h-3.144Zm5.929 0v-17.352h3.144V119h-3.144Zm9.578.096-4.848-11.688h3.408l3.216 8.928h-1.152l3.336-8.928h3.432l-5.16 11.664-2.232.024Zm-3.216 4.752 3.528-7.464 1.92 2.688-2.112 4.776h-3.336Zm11.521-9.552v-2.856h8.304v2.856h-8.304ZM150.802 119v-16.872h2.304l6.84 10.944h-1.32l6.816-10.944h2.304V119h-3.24v-11.28l.624.192-4.752 7.632h-2.208l-4.752-7.632.648-.192V119h-3.264Zm24.903.24c-1.056 0-2.008-.264-2.856-.792-.848-.528-1.512-1.248-1.992-2.16-.48-.912-.72-1.936-.72-3.072 0-1.152.24-2.184.72-3.096.48-.912 1.144-1.632 1.992-2.16.848-.528 1.8-.792 2.856-.792.832 0 1.576.168 2.232.504.656.336 1.176.808 1.56 1.416.4.592.616 1.264.648 2.016v4.176c-.032.768-.248 1.448-.648 2.04-.384.592-.904 1.064-1.56 1.416-.656.336-1.4.504-2.232.504Zm.576-2.904c.88 0 1.592-.288 2.136-.864.544-.592.816-1.352.816-2.28 0-.608-.128-1.144-.384-1.608-.24-.48-.584-.848-1.032-1.104-.432-.272-.944-.408-1.536-.408-.576 0-1.088.136-1.536.408-.432.256-.776.624-1.032 1.104-.24.464-.36 1-.36 1.608 0 .624.12 1.176.36 1.656.256.464.6.832 1.032 1.104.448.256.96.384 1.536.384Zm2.784 2.664v-3.12l.504-2.832-.504-2.784v-2.856h3.12V119h-3.12Zm13.701 0v-6.648c0-.688-.216-1.248-.648-1.68-.432-.432-.992-.648-1.68-.648-.448 0-.848.096-1.2.288-.352.192-.632.464-.84.816-.192.352-.288.76-.288 1.224l-1.224-.624c0-.912.192-1.704.576-2.376.4-.688.944-1.224 1.632-1.608.704-.384 1.496-.576 2.376-.576.848 0 1.608.216 2.28.648.672.416 1.2.968 1.584 1.656.384.672.576 1.4.576 2.184V119h-3.144Zm-7.8 0v-11.592h3.144V119h-3.144Zm18.325.24c-1.056 0-2.008-.264-2.856-.792-.848-.528-1.512-1.248-1.992-2.16-.48-.912-.72-1.936-.72-3.072 0-1.152.24-2.184.72-3.096.48-.912 1.144-1.632 1.992-2.16.848-.528 1.8-.792 2.856-.792.832 0 1.576.168 2.232.504.656.336 1.176.808 1.56 1.416.4.592.616 1.264.648 2.016v4.176c-.032.768-.248 1.448-.648 2.04-.384.592-.904 1.064-1.56 1.416-.656.336-1.4.504-2.232.504Zm.576-2.904c.88 0 1.592-.288 2.136-.864.544-.592.816-1.352.816-2.28 0-.608-.128-1.144-.384-1.608-.24-.48-.584-.848-1.032-1.104-.432-.272-.944-.408-1.536-.408-.576 0-1.088.136-1.536.408-.432.256-.776.624-1.032 1.104-.24.464-.36 1-.36 1.608 0 .624.12 1.176.36 1.656.256.464.6.832 1.032 1.104.448.256.96.384 1.536.384Zm2.784 2.664v-3.12l.504-2.832-.504-2.784v-2.856h3.12V119h-3.12Zm10.749 5.136c-1.232 0-2.32-.224-3.264-.672-.944-.432-1.696-1.048-2.256-1.848l1.992-1.992c.448.528.944.928 1.488 1.2.56.288 1.232.432 2.016.432.976 0 1.744-.248 2.304-.744.576-.496.864-1.184.864-2.064v-2.904l.528-2.544-.504-2.544v-3.048h3.12V118.4c0 1.152-.272 2.152-.816 3-.528.864-1.264 1.536-2.208 2.016-.944.48-2.032.72-3.264.72Zm-.144-5.448c-1.04 0-1.976-.248-2.808-.744-.832-.512-1.488-1.208-1.968-2.088-.464-.88-.696-1.864-.696-2.952 0-1.088.232-2.064.696-2.928.48-.864 1.136-1.544 1.968-2.04.832-.512 1.768-.768 2.808-.768.864 0 1.624.168 2.28.504.672.336 1.2.8 1.584 1.392.384.576.592 1.256.624 2.04v3.648c-.032.768-.248 1.456-.648 2.064-.384.592-.912 1.056-1.584 1.392-.656.32-1.408.48-2.256.48Zm.624-2.856c.576 0 1.072-.12 1.488-.36.432-.256.768-.6 1.008-1.032.24-.448.36-.952.36-1.512 0-.576-.12-1.08-.36-1.512-.24-.432-.576-.768-1.008-1.008-.416-.256-.912-.384-1.488-.384s-1.08.128-1.512.384c-.432.24-.768.584-1.008 1.032-.24.432-.36.928-.36 1.488 0 .544.12 1.04.36 1.488.24.432.576.776 1.008 1.032.432.256.936.384 1.512.384Zm14.115 3.408c-1.216 0-2.296-.256-3.24-.768-.944-.528-1.696-1.248-2.256-2.16-.544-.912-.816-1.952-.816-3.12 0-1.152.264-2.176.792-3.072.544-.912 1.28-1.632 2.208-2.16.928-.544 1.96-.816 3.096-.816 1.12 0 2.104.256 2.952.768.864.496 1.536 1.184 2.016 2.064.496.864.744 1.848.744 2.952 0 .208-.016.424-.048.648-.016.208-.056.448-.12.72l-9.744.024v-2.352l8.28-.024-1.272.984c-.032-.688-.16-1.264-.384-1.728-.208-.464-.52-.816-.936-1.056-.4-.256-.896-.384-1.488-.384-.624 0-1.168.144-1.632.432-.464.272-.824.664-1.08 1.176-.24.496-.36 1.088-.36 1.776 0 .704.128 1.32.384 1.848.272.512.656.912 1.152 1.2.496.272 1.072.408 1.728.408.592 0 1.128-.096 1.608-.288.48-.208.896-.512 1.248-.912l1.848 1.848c-.56.656-1.248 1.152-2.064 1.488-.8.336-1.672.504-2.616.504Zm12.336 0c-1.072 0-2.032-.264-2.88-.792-.848-.528-1.52-1.248-2.016-2.16-.48-.912-.72-1.936-.72-3.072 0-1.152.24-2.184.72-3.096.496-.912 1.16-1.632 1.992-2.16.848-.528 1.816-.792 2.904-.792.832 0 1.576.168 2.232.504.672.336 1.208.808 1.608 1.416.416.592.64 1.264.672 2.016v4.128c-.032.752-.248 1.432-.648 2.04-.4.608-.936 1.088-1.608 1.44-.672.352-1.424.528-2.256.528Zm.528-2.904c.592 0 1.104-.128 1.536-.384.448-.272.792-.64 1.032-1.104.256-.48.384-1.032.384-1.656 0-.608-.128-1.144-.384-1.608-.24-.48-.584-.848-1.032-1.104-.432-.272-.936-.408-1.512-.408-.592 0-1.112.136-1.56.408-.432.272-.776.64-1.032 1.104-.24.464-.36 1-.36 1.608 0 .624.12 1.176.36 1.656.256.464.608.832 1.056 1.104.448.256.952.384 1.512.384Zm5.904 2.664h-3.12v-3.12l.504-2.832-.528-2.784v-8.616h3.144V119Zm12.701.24c-1.36 0-2.528-.232-3.504-.696-.96-.464-1.832-1.16-2.616-2.088l2.16-2.16c.496.656 1.072 1.168 1.728 1.536.656.352 1.456.528 2.4.528.848 0 1.52-.168 2.016-.504.512-.336.768-.8.768-1.392 0-.512-.144-.928-.432-1.248-.288-.32-.672-.592-1.152-.816-.464-.224-.984-.424-1.56-.6-.56-.192-1.128-.408-1.704-.648-.56-.24-1.08-.536-1.56-.888-.464-.368-.84-.832-1.128-1.392-.288-.576-.432-1.296-.432-2.16 0-1.024.248-1.896.744-2.616.496-.72 1.176-1.272 2.04-1.656.864-.384 1.84-.576 2.928-.576 1.152 0 2.192.216 3.12.648.928.432 1.688.992 2.28 1.68l-2.16 2.16c-.496-.544-1.008-.944-1.536-1.2-.512-.256-1.096-.384-1.752-.384-.752 0-1.344.144-1.776.432-.432.288-.648.704-.648 1.248 0 .464.144.84.432 1.128.288.288.664.536 1.128.744.48.208 1 .408 1.56.6.576.192 1.144.408 1.704.648.576.24 1.096.552 1.56.936.48.384.864.88 1.152 1.488.288.592.432 1.328.432 2.208 0 1.568-.552 2.8-1.656 3.696-1.104.896-2.616 1.344-4.536 1.344Zm13.81 0c-1.184 0-2.248-.264-3.192-.792s-1.688-1.248-2.232-2.16c-.544-.912-.816-1.936-.816-3.072 0-1.152.272-2.184.816-3.096.544-.912 1.288-1.632 2.232-2.16.96-.544 2.024-.816 3.192-.816.912 0 1.752.168 2.52.504.768.336 1.432.816 1.992 1.44l-2.016 2.04c-.304-.336-.672-.592-1.104-.768-.416-.176-.88-.264-1.392-.264-.576 0-1.096.136-1.56.408-.448.256-.808.616-1.08 1.08-.256.448-.384.984-.384 1.608 0 .608.128 1.152.384 1.632.272.464.632.832 1.08 1.104.464.256.984.384 1.56.384.528 0 1-.088 1.416-.264.432-.192.8-.464 1.104-.816l2.04 2.04c-.592.64-1.272 1.128-2.04 1.464-.768.336-1.608.504-2.52.504Zm10.931 0c-1.056 0-2.008-.264-2.856-.792-.848-.528-1.512-1.248-1.992-2.16-.48-.912-.72-1.936-.72-3.072 0-1.152.24-2.184.72-3.096.48-.912 1.144-1.632 1.992-2.16.848-.528 1.8-.792 2.856-.792.832 0 1.576.168 2.232.504.656.336 1.176.808 1.56 1.416.4.592.616 1.264.648 2.016v4.176c-.032.768-.248 1.448-.648 2.04-.384.592-.904 1.064-1.56 1.416-.656.336-1.4.504-2.232.504Zm.576-2.904c.88 0 1.592-.288 2.136-.864.544-.592.816-1.352.816-2.28 0-.608-.128-1.144-.384-1.608-.24-.48-.584-.848-1.032-1.104-.432-.272-.944-.408-1.536-.408-.576 0-1.088.136-1.536.408-.432.256-.776.624-1.032 1.104-.24.464-.36 1-.36 1.608 0 .624.12 1.176.36 1.656.256.464.6.832 1.032 1.104.448.256.96.384 1.536.384Zm2.784 2.664v-3.12l.504-2.832-.504-2.784v-2.856h3.12V119h-3.12Zm5.901 0v-17.352h3.144V119h-3.144Zm10.778.24c-1.056 0-2.008-.264-2.856-.792-.848-.528-1.512-1.248-1.992-2.16-.48-.912-.72-1.936-.72-3.072 0-1.152.24-2.184.72-3.096.48-.912 1.144-1.632 1.992-2.16.848-.528 1.8-.792 2.856-.792.832 0 1.576.168 2.232.504.656.336 1.176.808 1.56 1.416.4.592.616 1.264.648 2.016v4.176c-.032.768-.248 1.448-.648 2.04-.384.592-.904 1.064-1.56 1.416-.656.336-1.4.504-2.232.504Zm.576-2.904c.88 0 1.592-.288 2.136-.864.544-.592.816-1.352.816-2.28 0-.608-.128-1.144-.384-1.608-.24-.48-.584-.848-1.032-1.104-.432-.272-.944-.408-1.536-.408-.576 0-1.088.136-1.536.408-.432.256-.776.624-1.032 1.104-.24.464-.36 1-.36 1.608 0 .624.12 1.176.36 1.656.256.464.6.832 1.032 1.104.448.256.96.384 1.536.384Zm2.784 2.664v-3.12l.504-2.832-.504-2.784v-2.856h3.12V119h-3.12Zm12.333.24c-.832 0-1.584-.176-2.256-.528-.672-.352-1.208-.832-1.608-1.44-.4-.608-.616-1.288-.648-2.04v-4.128c.032-.752.248-1.424.648-2.016.416-.608.96-1.08 1.632-1.416.672-.336 1.416-.504 2.232-.504 1.072 0 2.032.264 2.88.792.848.528 1.512 1.248 1.992 2.16.496.912.744 1.944.744 3.096 0 1.136-.248 2.16-.744 3.072-.48.912-1.144 1.632-1.992 2.16-.848.528-1.808.792-2.88.792Zm-.528-2.904c.576 0 1.08-.128 1.512-.384.448-.272.792-.64 1.032-1.104.256-.48.384-1.032.384-1.656 0-.608-.128-1.144-.384-1.608-.24-.48-.584-.848-1.032-1.104-.448-.272-.96-.408-1.536-.408-.576 0-1.088.136-1.536.408-.432.256-.776.624-1.032 1.104-.24.464-.36 1-.36 1.608 0 .624.12 1.176.36 1.656.256.464.608.832 1.056 1.104.448.256.96.384 1.536.384ZM317.505 119v-17.352h3.144v8.616l-.528 2.784.504 2.832V119h-3.12Zm14.11 0v-17.352h3.144V119h-3.144Zm11.473.24c-1.216 0-2.296-.256-3.24-.768-.944-.528-1.696-1.248-2.256-2.16-.544-.912-.816-1.952-.816-3.12 0-1.152.264-2.176.792-3.072.544-.912 1.28-1.632 2.208-2.16.928-.544 1.96-.816 3.096-.816 1.12 0 2.104.256 2.952.768.864.496 1.536 1.184 2.016 2.064.496.864.744 1.848.744 2.952 0 .208-.016.424-.048.648-.016.208-.056.448-.12.72l-9.744.024v-2.352l8.28-.024-1.272.984c-.032-.688-.16-1.264-.384-1.728-.208-.464-.52-.816-.936-1.056-.4-.256-.896-.384-1.488-.384-.624 0-1.168.144-1.632.432-.464.272-.824.664-1.08 1.176-.24.496-.36 1.088-.36 1.776 0 .704.128 1.32.384 1.848.272.512.656.912 1.152 1.2.496.272 1.072.408 1.728.408.592 0 1.128-.096 1.608-.288.48-.208.896-.512 1.248-.912l1.848 1.848c-.56.656-1.248 1.152-2.064 1.488-.8.336-1.672.504-2.616.504Zm24.976 0c-1.232 0-2.376-.216-3.432-.648-1.056-.448-1.984-1.064-2.784-1.848-.784-.8-1.392-1.728-1.824-2.784-.416-1.056-.624-2.192-.624-3.408 0-1.216.208-2.352.624-3.408.432-1.056 1.04-1.976 1.824-2.76.8-.784 1.72-1.4 2.76-1.848 1.056-.448 2.208-.672 3.456-.672 1.344 0 2.528.224 3.552.672 1.024.432 1.928 1.032 2.712 1.8l-2.208 2.208c-.464-.512-1.032-.912-1.704-1.2-.672-.288-1.456-.432-2.352-.432-.784 0-1.504.136-2.16.408-.64.256-1.2.64-1.68 1.152-.48.496-.848 1.096-1.104 1.8-.256.688-.384 1.448-.384 2.28 0 .848.128 1.616.384 2.304.256.688.624 1.288 1.104 1.8.48.496 1.04.88 1.68 1.152.656.272 1.376.408 2.16.408.944 0 1.752-.144 2.424-.432.688-.288 1.264-.696 1.728-1.224l2.208 2.208c-.784.784-1.696 1.392-2.736 1.824-1.04.432-2.248.648-3.624.648Zm13.436 0c-1.168 0-2.224-.264-3.168-.792-.928-.544-1.672-1.272-2.232-2.184-.544-.928-.816-1.96-.816-3.096 0-1.136.272-2.152.816-3.048.544-.912 1.288-1.632 2.232-2.16.944-.544 1.992-.816 3.144-.816 1.184 0 2.24.272 3.168.816.944.528 1.688 1.248 2.232 2.16.544.896.816 1.912.816 3.048 0 1.136-.272 2.168-.816 3.096-.544.912-1.288 1.64-2.232 2.184-.928.528-1.976.792-3.144.792Zm-.024-2.928c.592 0 1.112-.128 1.56-.384.464-.272.816-.64 1.056-1.104.256-.48.384-1.024.384-1.632 0-.608-.128-1.144-.384-1.608-.256-.464-.608-.824-1.056-1.08-.448-.272-.968-.408-1.56-.408-.576 0-1.088.136-1.536.408-.448.256-.8.616-1.056 1.08-.256.464-.384 1-.384 1.608 0 .608.128 1.152.384 1.632.256.464.608.832 1.056 1.104.448.256.96.384 1.536.384Zm8.24 2.688v-11.592h3.144V119h-3.144Zm7.56 0v-6.84c0-.672-.216-1.192-.648-1.56-.416-.384-.936-.576-1.56-.576-.416 0-.792.088-1.128.264-.336.16-.6.4-.792.72-.192.32-.288.704-.288 1.152l-1.224-.6c0-.896.192-1.672.576-2.328.4-.656.936-1.16 1.608-1.512.672-.368 1.432-.552 2.28-.552.8 0 1.528.184 2.184.552.656.352 1.176.856 1.56 1.512.384.64.576 1.416.576 2.328V119h-3.144Zm7.56 0v-6.84c0-.672-.216-1.192-.648-1.56-.416-.384-.936-.576-1.56-.576-.4 0-.776.088-1.128.264-.336.16-.6.4-.792.72-.192.32-.288.704-.288 1.152l-1.8-.432c.064-.928.312-1.728.744-2.4.432-.688 1-1.216 1.704-1.584.704-.384 1.488-.576 2.352-.576.864 0 1.64.184 2.328.552.688.352 1.232.864 1.632 1.536.4.672.6 1.472.6 2.4V119h-3.144Zm12.125.24c-.832 0-1.584-.168-2.256-.504-.672-.352-1.208-.824-1.608-1.416-.4-.592-.616-1.272-.648-2.04v-4.104c.032-.768.248-1.448.648-2.04.416-.608.952-1.088 1.608-1.44.672-.352 1.424-.528 2.256-.528 1.072 0 2.032.264 2.88.792.848.528 1.512 1.248 1.992 2.16.496.912.744 1.944.744 3.096 0 1.136-.248 2.16-.744 3.072-.48.912-1.144 1.632-1.992 2.16-.848.528-1.808.792-2.88.792Zm-.552-2.904c.576 0 1.088-.128 1.536-.384.448-.272.792-.64 1.032-1.104.256-.48.384-1.032.384-1.656 0-.608-.128-1.144-.384-1.608-.24-.48-.584-.848-1.032-1.104-.448-.272-.96-.408-1.536-.408-.56 0-1.064.136-1.512.408-.448.256-.8.624-1.056 1.104-.24.464-.36 1-.36 1.608 0 .624.12 1.176.36 1.656.256.464.6.832 1.032 1.104.448.256.96.384 1.536.384Zm-5.88 7.512v-16.44h3.144v3.048l-.528 2.808.504 2.808v7.776h-3.12Zm19.053-4.608c-1.024 0-1.936-.216-2.736-.648-.784-.432-1.4-1.032-1.848-1.8-.448-.768-.672-1.656-.672-2.664v-6.72h3.168v6.648c0 .48.08.896.24 1.248.16.336.4.592.72.768.32.176.696.264 1.128.264.656 0 1.168-.2 1.536-.6.368-.4.552-.96.552-1.68v-6.648h3.144v6.72c0 1.024-.224 1.92-.672 2.688-.432.768-1.048 1.368-1.848 1.8-.784.416-1.688.624-2.712.624Zm9.44-.24v-16.416h3.144V119h-3.144Zm-2.712-8.832v-2.76h8.568v2.76h-8.568Zm15.599 9.072c-1.216 0-2.296-.256-3.24-.768-.944-.528-1.696-1.248-2.256-2.16-.544-.912-.816-1.952-.816-3.12 0-1.152.264-2.176.792-3.072.544-.912 1.28-1.632 2.208-2.16.928-.544 1.96-.816 3.096-.816 1.12 0 2.104.256 2.952.768.864.496 1.536 1.184 2.016 2.064.496.864.744 1.848.744 2.952 0 .208-.016.424-.048.648-.016.208-.056.448-.12.72l-9.744.024v-2.352l8.28-.024-1.272.984c-.032-.688-.16-1.264-.384-1.728-.208-.464-.52-.816-.936-1.056-.4-.256-.896-.384-1.488-.384-.624 0-1.168.144-1.632.432-.464.272-.824.664-1.08 1.176-.24.496-.36 1.088-.36 1.776 0 .704.128 1.32.384 1.848.272.512.656.912 1.152 1.2.496.272 1.072.408 1.728.408.592 0 1.128-.096 1.608-.288.48-.208.896-.512 1.248-.912l1.848 1.848c-.56.656-1.248 1.152-2.064 1.488-.8.336-1.672.504-2.616.504Zm14.864-6.504v-2.664h3.912c.512 0 .976-.104 1.392-.312.416-.208.744-.504.984-.888.24-.4.36-.88.36-1.44 0-.544-.12-1.016-.36-1.416-.24-.4-.568-.704-.984-.912-.416-.208-.88-.312-1.392-.312h-3.912v-2.664h4.248c1.072 0 2.032.216 2.88.648.864.432 1.544 1.048 2.04 1.848.496.784.744 1.72.744 2.808 0 1.088-.248 2.032-.744 2.832-.496.784-1.176 1.392-2.04 1.824-.848.432-1.808.648-2.88.648h-4.248Zm-2.4 6.264v-16.872h3.264V119h-3.264Zm14.453 0v-17.352h3.144V119h-3.144Zm10.777.24c-1.056 0-2.008-.264-2.856-.792-.848-.528-1.512-1.248-1.992-2.16-.48-.912-.72-1.936-.72-3.072 0-1.152.24-2.184.72-3.096.48-.912 1.144-1.632 1.992-2.16.848-.528 1.8-.792 2.856-.792.832 0 1.576.168 2.232.504.656.336 1.176.808 1.56 1.416.4.592.616 1.264.648 2.016v4.176c-.032.768-.248 1.448-.648 2.04-.384.592-.904 1.064-1.56 1.416-.656.336-1.4.504-2.232.504Zm.576-2.904c.88 0 1.592-.288 2.136-.864.544-.592.816-1.352.816-2.28 0-.608-.128-1.144-.384-1.608-.24-.48-.584-.848-1.032-1.104-.432-.272-.944-.408-1.536-.408-.576 0-1.088.136-1.536.408-.432.256-.776.624-1.032 1.104-.24.464-.36 1-.36 1.608 0 .624.12 1.176.36 1.656.256.464.6.832 1.032 1.104.448.256.96.384 1.536.384Zm2.784 2.664v-3.12l.504-2.832-.504-2.784v-2.856h3.12V119h-3.12Zm7.606 0v-16.416h3.144V119h-3.144Zm-2.712-8.832v-2.76h8.568v2.76h-8.568Zm11.52 8.832v-12.84c0-.928.2-1.744.6-2.448.4-.72.968-1.288 1.704-1.704.736-.416 1.6-.624 2.592-.624.752 0 1.4.128 1.944.384s1.032.608 1.464 1.056l-1.992 2.016c-.176-.176-.368-.312-.576-.408-.208-.096-.472-.144-.792-.144-.576 0-1.024.16-1.344.48-.304.304-.456.744-.456 1.32V119h-3.144Zm-2.688-8.832v-2.76h9.264v2.76h-9.264Zm16.116 9.072c-1.168 0-2.224-.264-3.168-.792-.928-.544-1.672-1.272-2.232-2.184-.544-.928-.816-1.96-.816-3.096 0-1.136.272-2.152.816-3.048.544-.912 1.288-1.632 2.232-2.16.944-.544 1.992-.816 3.144-.816 1.184 0 2.24.272 3.168.816.944.528 1.688 1.248 2.232 2.16.544.896.816 1.912.816 3.048 0 1.136-.272 2.168-.816 3.096-.544.912-1.288 1.64-2.232 2.184-.928.528-1.976.792-3.144.792Zm-.024-2.928c.592 0 1.112-.128 1.56-.384.464-.272.816-.64 1.056-1.104.256-.48.384-1.024.384-1.632 0-.608-.128-1.144-.384-1.608-.256-.464-.608-.824-1.056-1.08-.448-.272-.968-.408-1.56-.408-.576 0-1.088.136-1.536.408-.448.256-.8.616-1.056 1.08-.256.464-.384 1-.384 1.608 0 .608.128 1.152.384 1.632.256.464.608.832 1.056 1.104.448.256.96.384 1.536.384Zm8.24 2.688v-11.592h3.144V119h-3.144Zm3.144-6.408-1.224-.816c.144-1.424.56-2.544 1.248-3.36.688-.832 1.68-1.248 2.976-1.248.56 0 1.064.096 1.512.288.448.176.856.472 1.224.888l-1.968 2.256c-.176-.192-.392-.336-.648-.432-.24-.096-.52-.144-.84-.144-.672 0-1.224.216-1.656.648-.416.416-.624 1.056-.624 1.92Zm6.793 6.408v-11.592h3.144V119h-3.144Zm7.56 0v-6.84c0-.672-.216-1.192-.648-1.56-.416-.384-.936-.576-1.56-.576-.416 0-.792.088-1.128.264-.336.16-.6.4-.792.72-.192.32-.288.704-.288 1.152l-1.224-.6c0-.896.192-1.672.576-2.328.4-.656.936-1.16 1.608-1.512.672-.368 1.432-.552 2.28-.552.8 0 1.528.184 2.184.552.656.352 1.176.856 1.56 1.512.384.64.576 1.416.576 2.328V119h-3.144Zm7.56 0v-6.84c0-.672-.216-1.192-.648-1.56-.416-.384-.936-.576-1.56-.576-.4 0-.776.088-1.128.264-.336.16-.6.4-.792.72-.192.32-.288.704-.288 1.152l-1.8-.432c.064-.928.312-1.728.744-2.4.432-.688 1-1.216 1.704-1.584.704-.384 1.488-.576 2.352-.576.864 0 1.64.184 2.328.552.688.352 1.232.864 1.632 1.536.4.672.6 1.472.6 2.4V119h-3.144Z" fill="#fff"/>
  <rect x="32" y="160" width="184" height="80" rx="5" fill="#143566"/>
  <path d="m75.1552 207-4.6-14h2.26l3.46 10.78h-.6l3.38-10.78h1.6l3.38 10.78h-.6l3.46-10.78h2.26l-4.6 14h-1.6l-3.4-10.76h.6l-3.4 10.76h-1.6Zm18.7421.2c-.9333 0-1.78-.22-2.54-.66-.76-.453-1.3666-1.06-1.82-1.82-.44-.76-.66-1.607-.66-2.54s.22-1.773.66-2.52c.4534-.747 1.06-1.34 1.82-1.78.76-.453 1.6067-.68 2.54-.68.9467 0 1.8.22 2.56.66.76.44 1.36 1.04 1.8 1.8.4534.747.68 1.587.68 2.52s-.2266 1.78-.68 2.54c-.44.76-1.04 1.367-1.8 1.82-.76.44-1.6133.66-2.56.66Zm0-2.12c.5467 0 1.0267-.12 1.44-.36.4267-.253.7534-.6.98-1.04.24-.44.36-.94.36-1.5s-.12-1.053-.36-1.48c-.24-.427-.5666-.76-.98-1-.4133-.253-.8933-.38-1.44-.38-.5333 0-1.0133.127-1.44.38-.4133.24-.74.573-.98 1-.2266.427-.34.92-.34 1.48 0 .56.1134 1.06.34 1.5.24.44.5667.787.98 1.04.4267.24.9067.36 1.44.36Zm6.8697 1.92v-9.6h2.2v9.6h-2.2Zm2.2-5.34-.76-.38c0-1.213.267-2.193.8-2.94.547-.76 1.367-1.14 2.46-1.14.48 0 .913.087 1.3.26.387.173.747.453 1.08.84l-1.44 1.48c-.173-.187-.367-.32-.58-.4-.213-.08-.46-.12-.74-.12-.613 0-1.12.193-1.52.58-.4.387-.6.993-.6 1.82Zm12.044 5.34-4.06-4.9 4.04-4.7h2.62l-4.64 5.28.1-1.26 4.74 5.58h-2.8Zm-6.1 0v-14.4h2.2V207h-2.2Zm12.789.2c-.533 0-1.047-.067-1.54-.2-.493-.147-.947-.347-1.36-.6-.413-.267-.773-.587-1.08-.96l1.4-1.4c.333.387.713.68 1.14.88.44.187.933.28 1.48.28.493 0 .867-.073 1.12-.22.253-.147.38-.36.38-.64 0-.293-.12-.52-.36-.68-.24-.16-.553-.293-.94-.4-.373-.12-.773-.24-1.2-.36-.413-.12-.813-.28-1.2-.48-.373-.213-.68-.5-.92-.86s-.36-.827-.36-1.4c0-.613.14-1.14.42-1.58.293-.44.7-.78 1.22-1.02.533-.24 1.167-.36 1.9-.36.773 0 1.453.14 2.04.42.6.267 1.1.673 1.5 1.22l-1.4 1.4c-.28-.347-.6-.607-.96-.78-.36-.173-.773-.26-1.24-.26-.44 0-.78.067-1.02.2s-.36.327-.36.58c0 .267.12.473.36.62.24.147.547.273.92.38.387.107.787.227 1.2.36.427.12.827.293 1.2.52.387.213.7.507.94.88.24.36.36.833.36 1.42 0 .933-.327 1.673-.98 2.22-.653.547-1.54.82-2.66.82Zm10.594 0c-.734 0-1.387-.153-1.96-.46-.574-.32-1.027-.753-1.36-1.3-.32-.547-.48-1.167-.48-1.86v-2.76c0-.693.166-1.313.5-1.86.333-.547.786-.973 1.36-1.28.573-.32 1.22-.48 1.94-.48.866 0 1.646.227 2.34.68.706.44 1.26 1.04 1.66 1.8.413.747.62 1.593.62 2.54 0 .933-.207 1.78-.62 2.54-.4.747-.954 1.34-1.66 1.78-.694.44-1.474.66-2.34.66Zm-.36-2.08c.533 0 1-.12 1.4-.36.413-.253.733-.6.96-1.04.24-.44.36-.947.36-1.52 0-.573-.12-1.08-.36-1.52-.227-.44-.547-.78-.96-1.02-.4-.253-.867-.38-1.4-.38-.534 0-1.007.127-1.42.38-.414.24-.734.58-.96 1.02-.227.44-.34.947-.34 1.52 0 .573.113 1.08.34 1.52.226.44.546.787.96 1.04.413.24.886.36 1.42.36Zm-4.78 5.88v-13.6h2.2v2.58l-.38 2.34.38 2.32V211h-2.2Zm15.621-3.8c-.867 0-1.653-.22-2.36-.66-.693-.44-1.247-1.033-1.66-1.78-.4-.76-.6-1.607-.6-2.54 0-.947.2-1.793.6-2.54.413-.76.967-1.36 1.66-1.8.707-.453 1.493-.68 2.36-.68.733 0 1.38.16 1.94.48.573.307 1.027.733 1.36 1.28.333.547.5 1.167.5 1.86v2.76c0 .693-.167 1.313-.5 1.86-.32.547-.767.98-1.34 1.3-.573.307-1.227.46-1.96.46Zm.36-2.08c.813 0 1.467-.273 1.96-.82.507-.547.76-1.247.76-2.1 0-.573-.113-1.08-.34-1.52-.227-.44-.547-.78-.96-1.02-.4-.253-.873-.38-1.42-.38-.533 0-1.007.127-1.42.38-.4.24-.72.58-.96 1.02-.227.44-.34.947-.34 1.52 0 .573.113 1.08.34 1.52.24.44.56.787.96 1.04.413.24.887.36 1.42.36Zm2.58 1.88v-2.58l.38-2.34-.38-2.32v-2.36h2.2v9.6h-2.2Zm9.062.2c-.947 0-1.807-.22-2.58-.66-.76-.44-1.36-1.04-1.8-1.8-.44-.76-.66-1.607-.66-2.54 0-.947.22-1.793.66-2.54.44-.76 1.04-1.36 1.8-1.8.773-.44 1.633-.66 2.58-.66.746 0 1.44.147 2.08.44.653.28 1.206.687 1.66 1.22l-1.44 1.46c-.28-.333-.62-.58-1.02-.74-.387-.173-.814-.26-1.28-.26-.547 0-1.034.127-1.46.38-.414.24-.74.573-.98 1-.227.427-.34.927-.34 1.5 0 .56.113 1.06.34 1.5.24.427.566.767.98 1.02.426.24.913.36 1.46.36.466 0 .893-.08 1.28-.24.4-.173.74-.427 1.02-.76l1.44 1.46c-.454.533-1.007.947-1.66 1.24-.64.28-1.334.42-2.08.42Zm9.591 0c-.96 0-1.827-.213-2.6-.64-.76-.44-1.367-1.04-1.82-1.8-.44-.76-.66-1.613-.66-2.56 0-.947.22-1.793.66-2.54.44-.76 1.033-1.36 1.78-1.8.76-.44 1.6-.66 2.52-.66.893 0 1.68.207 2.36.62.693.413 1.233.98 1.62 1.7.4.72.6 1.54.6 2.46 0 .16-.014.327-.041.5-.013.16-.039.34-.079.54h-7.88v-1.8h6.74l-.82.72c-.027-.587-.14-1.08-.34-1.48-.2-.4-.487-.707-.86-.92-.36-.213-.807-.32-1.34-.32-.56 0-1.047.12-1.46.36-.414.24-.734.58-.96 1.02-.227.427-.34.94-.34 1.54 0 .6.12 1.127.36 1.58.24.453.58.807 1.02 1.06.44.24.946.36 1.52.36.493 0 .946-.087 1.36-.26.426-.173.786-.427 1.08-.76l1.4 1.42c-.467.547-1.034.96-1.7 1.24-.667.28-1.374.42-2.12.42Zm9.363 0c-.533 0-1.047-.067-1.54-.2-.493-.147-.947-.347-1.36-.6-.413-.267-.773-.587-1.08-.96l1.4-1.4c.333.387.713.68 1.14.88.44.187.933.28 1.48.28.493 0 .867-.073 1.12-.22.253-.147.38-.36.38-.64 0-.293-.12-.52-.36-.68-.24-.16-.553-.293-.94-.4-.373-.12-.773-.24-1.2-.36-.413-.12-.813-.28-1.2-.48-.373-.213-.68-.5-.92-.86s-.36-.827-.36-1.4c0-.613.14-1.14.42-1.58.293-.44.7-.78 1.22-1.02.533-.24 1.167-.36 1.9-.36.773 0 1.453.14 2.04.42.6.267 1.1.673 1.5 1.22l-1.4 1.4c-.28-.347-.6-.607-.96-.78-.36-.173-.773-.26-1.24-.26-.44 0-.78.067-1.02.2s-.36.327-.36.58c0 .267.12.473.36.62.24.147.547.273.92.38.387.107.787.227 1.2.36.427.12.827.293 1.2.52.387.213.7.507.94.88.24.36.36.833.36 1.42 0 .933-.327 1.673-.98 2.22-.653.547-1.54.82-2.66.82Z" fill="#fff"/>
  <rect x="232" y="160" width="184" height="80" rx="5" fill="#143566"/>
  <path d="M307.486 207.2c-.813 0-1.54-.16-2.18-.48-.626-.333-1.133-.773-1.52-1.32l1.62-1.48c.227.347.514.613.86.8.347.187.727.28 1.14.28.454 0 .84-.093 1.16-.28.32-.187.567-.453.74-.8.174-.347.26-.76.26-1.24V193h2.3v9.5c0 .933-.186 1.753-.56 2.46-.36.707-.866 1.26-1.52 1.66-.653.387-1.42.58-2.3.58Zm11.343 0c-.933 0-1.78-.22-2.54-.66-.76-.453-1.367-1.06-1.82-1.82-.44-.76-.66-1.607-.66-2.54s.22-1.773.66-2.52c.453-.747 1.06-1.34 1.82-1.78.76-.453 1.607-.68 2.54-.68.947 0 1.8.22 2.56.66.76.44 1.36 1.04 1.8 1.8.453.747.68 1.587.68 2.52s-.227 1.78-.68 2.54c-.44.76-1.04 1.367-1.8 1.82-.76.44-1.613.66-2.56.66Zm0-2.12c.547 0 1.027-.12 1.44-.36.427-.253.753-.6.98-1.04.24-.44.36-.94.36-1.5s-.12-1.053-.36-1.48c-.24-.427-.567-.76-.98-1-.413-.253-.893-.38-1.44-.38-.533 0-1.013.127-1.44.38-.413.24-.74.573-.98 1-.227.427-.34.92-.34 1.48 0 .56.113 1.06.34 1.5.24.44.567.787.98 1.04.427.24.907.36 1.44.36Zm12.01 2.12c-.734 0-1.387-.153-1.96-.46-.574-.32-1.027-.753-1.36-1.3-.32-.547-.48-1.167-.48-1.86v-2.76c0-.693.166-1.313.5-1.86.333-.547.786-.973 1.36-1.28.573-.32 1.22-.48 1.94-.48.866 0 1.646.227 2.34.68.706.44 1.26 1.04 1.66 1.8.413.747.62 1.593.62 2.54 0 .933-.207 1.78-.62 2.54-.4.747-.954 1.34-1.66 1.78-.694.44-1.474.66-2.34.66Zm-.36-2.08c.533 0 1-.12 1.4-.36.413-.253.733-.6.96-1.04.24-.44.36-.947.36-1.52 0-.573-.12-1.08-.36-1.52-.227-.44-.547-.78-.96-1.02-.4-.253-.867-.38-1.4-.38-.534 0-1.007.127-1.42.38-.414.24-.734.58-.96 1.02-.227.44-.34.947-.34 1.52 0 .573.113 1.08.34 1.52.226.44.546.787.96 1.04.413.24.886.36 1.42.36Zm-4.78 1.88v-14.4h2.2v7.16l-.38 2.32.38 2.34V207h-2.2Zm14.741.2c-.533 0-1.047-.067-1.54-.2-.493-.147-.947-.347-1.36-.6-.413-.267-.773-.587-1.08-.96l1.4-1.4c.333.387.713.68 1.14.88.44.187.933.28 1.48.28.493 0 .867-.073 1.12-.22.253-.147.38-.36.38-.64 0-.293-.12-.52-.36-.68-.24-.16-.553-.293-.94-.4-.373-.12-.773-.24-1.2-.36-.413-.12-.813-.28-1.2-.48-.373-.213-.68-.5-.92-.86s-.36-.827-.36-1.4c0-.613.14-1.14.42-1.58.293-.44.7-.78 1.22-1.02.533-.24 1.167-.36 1.9-.36.773 0 1.453.14 2.04.42.6.267 1.1.673 1.5 1.22l-1.4 1.4c-.28-.347-.6-.607-.96-.78-.36-.173-.773-.26-1.24-.26-.44 0-.78.067-1.02.2s-.36.327-.36.58c0 .267.12.473.36.62.24.147.547.273.92.38.387.107.787.227 1.2.36.427.12.827.293 1.2.52.387.213.7.507.94.88.24.36.36.833.36 1.42 0 .933-.327 1.673-.98 2.22-.653.547-1.54.82-2.66.82Z" fill="#fff"/>
  <rect x="432" y="160" width="184" height="80" rx="5" fill="#143566"/>
  <path d="M492.721 207.2c-1.107 0-2.047-.2-2.82-.6-.774-.4-1.467-.987-2.08-1.76l1.56-1.56c.386.56.846 1 1.38 1.32.533.307 1.213.46 2.04.46.773 0 1.386-.16 1.84-.48.466-.32.7-.76.7-1.32 0-.467-.12-.847-.36-1.14-.24-.293-.56-.533-.96-.72-.387-.2-.82-.373-1.3-.52-.467-.16-.94-.333-1.42-.52-.467-.2-.9-.447-1.3-.74-.387-.293-.7-.673-.94-1.14-.24-.467-.36-1.06-.36-1.78 0-.827.2-1.527.6-2.1.413-.587.966-1.033 1.66-1.34.693-.307 1.466-.46 2.32-.46.92 0 1.74.18 2.46.54.733.36 1.326.82 1.78 1.38l-1.56 1.56c-.4-.453-.82-.787-1.26-1-.427-.227-.92-.34-1.48-.34-.694 0-1.24.14-1.64.42-.387.28-.58.673-.58 1.18 0 .427.12.773.36 1.04.24.253.553.473.94.66.4.173.833.34 1.3.5.48.16.953.34 1.42.54.48.2.913.46 1.3.78.4.307.72.707.96 1.2s.36 1.113.36 1.86c0 1.253-.447 2.247-1.34 2.98-.88.733-2.074 1.1-3.58 1.1Zm11.256 0c-.96 0-1.827-.213-2.6-.64-.76-.44-1.367-1.04-1.82-1.8-.44-.76-.66-1.613-.66-2.56 0-.947.22-1.793.66-2.54.44-.76 1.033-1.36 1.78-1.8.76-.44 1.6-.66 2.52-.66.893 0 1.68.207 2.36.62.693.413 1.233.98 1.62 1.7.4.72.6 1.54.6 2.46 0 .16-.013.327-.04.5-.013.16-.04.34-.08.54h-7.88v-1.8h6.74l-.82.72c-.027-.587-.14-1.08-.34-1.48-.2-.4-.487-.707-.86-.92-.36-.213-.807-.32-1.34-.32-.56 0-1.047.12-1.46.36-.413.24-.733.58-.96 1.02-.227.427-.34.94-.34 1.54 0 .6.12 1.127.36 1.58.24.453.58.807 1.02 1.06.44.24.947.36 1.52.36.493 0 .947-.087 1.36-.26.427-.173.787-.427 1.08-.76l1.4 1.42c-.467.547-1.033.96-1.7 1.24s-1.373.42-2.12.42Zm6.223-.2v-9.6h2.2v9.6h-2.2Zm2.2-5.34-.76-.38c0-1.213.267-2.193.8-2.94.547-.76 1.367-1.14 2.46-1.14.48 0 .914.087 1.3.26.387.173.747.453 1.08.84l-1.44 1.48c-.173-.187-.366-.32-.58-.4-.213-.08-.46-.12-.74-.12-.613 0-1.12.193-1.52.58-.4.387-.6.993-.6 1.82Zm9.048 5.34-4.38-9.6h2.44l3.34 7.82h-1.44l3.36-7.82h2.34l-4.38 9.6h-1.28Zm6.976 0v-9.6h2.2v9.6h-2.2Zm1.1-11.36c-.374 0-.687-.127-.94-.38-.24-.253-.36-.567-.36-.94s.12-.687.36-.94c.253-.253.566-.38.94-.38.386 0 .7.127.94.38s.36.567.36.94-.12.687-.36.94c-.24.253-.554.38-.94.38Zm7.987 11.56c-.947 0-1.807-.22-2.58-.66-.76-.44-1.36-1.04-1.8-1.8-.44-.76-.66-1.607-.66-2.54 0-.947.22-1.793.66-2.54.44-.76 1.04-1.36 1.8-1.8.773-.44 1.633-.66 2.58-.66.747 0 1.44.147 2.08.44.653.28 1.207.687 1.66 1.22l-1.44 1.46c-.28-.333-.62-.58-1.02-.74-.387-.173-.813-.26-1.28-.26-.547 0-1.033.127-1.46.38-.413.24-.74.573-.98 1-.227.427-.34.927-.34 1.5 0 .56.113 1.06.34 1.5.24.427.567.767.98 1.02.427.24.913.36 1.46.36.467 0 .893-.08 1.28-.24.4-.173.74-.427 1.02-.76l1.44 1.46c-.453.533-1.007.947-1.66 1.24-.64.28-1.333.42-2.08.42Zm9.591 0c-.96 0-1.827-.213-2.6-.64-.76-.44-1.367-1.04-1.82-1.8-.44-.76-.66-1.613-.66-2.56 0-.947.22-1.793.66-2.54.44-.76 1.033-1.36 1.78-1.8.76-.44 1.6-.66 2.52-.66.893 0 1.68.207 2.36.62.693.413 1.233.98 1.62 1.7.4.72.6 1.54.6 2.46 0 .16-.013.327-.04.5-.013.16-.04.34-.08.54h-7.88v-1.8h6.74l-.82.72c-.027-.587-.14-1.08-.34-1.48-.2-.4-.487-.707-.86-.92-.36-.213-.807-.32-1.34-.32-.56 0-1.047.12-1.46.36-.413.24-.733.58-.96 1.02-.227.427-.34.94-.34 1.54 0 .6.12 1.127.36 1.58.24.453.58.807 1.02 1.06.44.24.947.36 1.52.36.493 0 .947-.087 1.36-.26.427-.173.787-.427 1.08-.76l1.4 1.42c-.467.547-1.033.96-1.7 1.24s-1.373.42-2.12.42Zm9.363 0c-.533 0-1.046-.067-1.54-.2-.493-.147-.946-.347-1.36-.6-.413-.267-.773-.587-1.08-.96l1.4-1.4c.334.387.714.68 1.14.88.44.187.934.28 1.48.28.494 0 .867-.073 1.12-.22.254-.147.38-.36.38-.64 0-.293-.12-.52-.36-.68-.24-.16-.553-.293-.94-.4-.373-.12-.773-.24-1.2-.36-.413-.12-.813-.28-1.2-.48-.373-.213-.68-.5-.92-.86s-.36-.827-.36-1.4c0-.613.14-1.14.42-1.58.294-.44.7-.78 1.22-1.02.534-.24 1.167-.36 1.9-.36.774 0 1.454.14 2.04.42.6.267 1.1.673 1.5 1.22l-1.4 1.4c-.28-.347-.6-.607-.96-.78-.36-.173-.773-.26-1.24-.26-.44 0-.78.067-1.02.2s-.36.327-.36.58c0 .267.12.473.36.62.24.147.547.273.92.38.387.107.787.227 1.2.36.427.12.827.293 1.2.52.387.213.7.507.94.88.24.36.36.833.36 1.42 0 .933-.326 1.673-.98 2.22-.653.547-1.54.82-2.66.82Z" fill="#fff"/>
  <rect x="32" y="268" width="584" height="222" rx="5" fill="#4772BC"/>
  <rect x="52" y="288" width="99.2" height="72" rx="5" fill="#7394CC"/>
  <path d="M82.2065 320v-1.89h3.312c.864 0 1.62-.186 2.268-.558.66-.372 1.17-.888 1.53-1.548.372-.672.558-1.446.558-2.322 0-.864-.186-1.626-.558-2.286-.372-.66-.888-1.176-1.548-1.548-.648-.372-1.398-.558-2.25-.558h-3.312v-1.89h3.366c.912 0 1.758.162 2.538.486.78.312 1.458.756 2.034 1.332.588.564 1.044 1.23 1.368 1.998.324.756.486 1.584.486 2.484 0 .888-.162 1.716-.486 2.484-.324.768-.774 1.44-1.35 2.016-.576.564-1.254 1.008-2.034 1.332-.78.312-1.62.468-2.52.468h-3.402Zm-1.422 0v-12.6h2.07V320h-2.07Zm16.6722.18c-.78 0-1.488-.198-2.124-.594-.624-.396-1.122-.93-1.494-1.602-.36-.684-.54-1.446-.54-2.286 0-.852.18-1.614.54-2.286.372-.684.87-1.224 1.494-1.62.636-.408 1.344-.612 2.124-.612.66 0 1.242.144 1.746.432.516.276.9243.66 1.2243 1.152.3.492.45 1.05.45 1.674v2.484c0 .624-.15 1.182-.45 1.674-.288.492-.6903.882-1.2063 1.17-.516.276-1.104.414-1.764.414Zm.324-1.872c.732 0 1.32-.246 1.764-.738.4563-.492.6843-1.122.6843-1.89 0-.516-.102-.972-.3063-1.368-.204-.396-.492-.702-.864-.918-.36-.228-.786-.342-1.278-.342-.48 0-.906.114-1.278.342-.36.216-.648.522-.864.918-.204.396-.306.852-.306 1.368 0 .516.102.972.306 1.368.216.396.504.708.864.936.372.216.798.324 1.278.324ZM100.103 320v-2.322l.342-2.106-.342-2.088v-2.124h1.98V320h-1.98Zm5.491 0v-12.24h1.98V320h-1.98Zm-2.07-6.84v-1.8h6.12v1.8h-6.12Zm10.931 7.02c-.78 0-1.488-.198-2.124-.594-.624-.396-1.122-.93-1.494-1.602-.36-.684-.54-1.446-.54-2.286 0-.852.18-1.614.54-2.286.372-.684.87-1.224 1.494-1.62.636-.408 1.344-.612 2.124-.612.66 0 1.242.144 1.746.432.516.276.924.66 1.224 1.152.3.492.45 1.05.45 1.674v2.484c0 .624-.15 1.182-.45 1.674-.288.492-.69.882-1.206 1.17-.516.276-1.104.414-1.764.414Zm.324-1.872c.732 0 1.32-.246 1.764-.738.456-.492.684-1.122.684-1.89 0-.516-.102-.972-.306-1.368-.204-.396-.492-.702-.864-.918-.36-.228-.786-.342-1.278-.342-.48 0-.906.114-1.278.342-.36.216-.648.522-.864.918-.204.396-.306.852-.306 1.368 0 .516.102.972.306 1.368.216.396.504.708.864.936.372.216.798.324 1.278.324Zm2.322 1.692v-2.322l.342-2.106-.342-2.088v-2.124h1.98V320h-1.98Zm-46.6876 22v-12.6h2.07V342h-2.07Zm1.422 0v-1.89h6.588V342h-6.588Zm11.8657.18c-.84 0-1.602-.198-2.286-.594-.684-.408-1.23-.954-1.638-1.638-.396-.684-.594-1.446-.594-2.286 0-.84.198-1.596.594-2.268.408-.672.954-1.206 1.638-1.602.684-.408 1.446-.612 2.286-.612.852 0 1.62.198 2.304.594.684.396 1.224.936 1.62 1.62.408.672.612 1.428.612 2.268 0 .84-.204 1.602-.612 2.286-.396.684-.936 1.23-1.62 1.638-.684.396-1.452.594-2.304.594Zm0-1.908c.492 0 .924-.108 1.296-.324.384-.228.678-.54.882-.936.216-.396.324-.846.324-1.35 0-.504-.108-.948-.324-1.332-.216-.384-.51-.684-.882-.9-.372-.228-.804-.342-1.296-.342-.48 0-.912.114-1.296.342-.372.216-.666.516-.882.9-.204.384-.306.828-.306 1.332 0 .504.102.954.306 1.35.216.396.51.708.882.936.384.216.816.324 1.296.324Zm9.8005 1.908c-.78 0-1.488-.198-2.124-.594-.624-.396-1.122-.93-1.494-1.602-.36-.684-.54-1.446-.54-2.286 0-.852.18-1.614.54-2.286.372-.684.87-1.224 1.494-1.62.636-.408 1.344-.612 2.124-.612.66 0 1.242.144 1.746.432.516.276.924.66 1.224 1.152.3.492.45 1.05.45 1.674v2.484c0 .624-.15 1.182-.45 1.674-.288.492-.69.882-1.206 1.17-.516.276-1.104.414-1.764.414Zm.324-1.872c.732 0 1.32-.246 1.764-.738.456-.492.684-1.122.684-1.89 0-.516-.102-.972-.306-1.368-.204-.396-.492-.702-.864-.918-.36-.228-.786-.342-1.278-.342-.48 0-.906.114-1.278.342-.36.216-.648.522-.864.918-.204.396-.306.852-.306 1.368 0 .516.102.972.306 1.368.216.396.504.708.864.936.372.216.798.324 1.278.324Zm2.322 1.692v-2.322l.342-2.106-.342-2.088v-2.124h1.98V342h-1.98Zm7.7954.18c-.78 0-1.488-.198-2.124-.594-.624-.396-1.122-.93-1.494-1.602-.3599-.684-.5399-1.446-.5399-2.286 0-.852.18-1.614.5399-2.286.372-.684.87-1.224 1.494-1.62.636-.408 1.344-.612 2.124-.612.66 0 1.242.144 1.746.432.516.276.924.66 1.224 1.152.3.492.45 1.05.45 1.674v2.484c0 .624-.15 1.182-.45 1.674-.288.492-.69.882-1.206 1.17-.516.276-1.104.414-1.764.414Zm.324-1.872c.492 0 .918-.108 1.278-.324.372-.228.66-.54.864-.936.204-.396.306-.852.306-1.368 0-.516-.102-.972-.306-1.368-.204-.396-.492-.702-.864-.918-.36-.228-.786-.342-1.278-.342-.48 0-.906.114-1.278.342-.36.216-.648.522-.864.918-.204.396-.306.852-.306 1.368 0 .516.102.972.306 1.368.216.396.504.708.864.936.372.216.798.324 1.278.324Zm4.302 1.692h-1.98v-2.322l.342-2.106-.342-2.088v-6.444h1.98V342Zm2.215 0v-8.64h1.98V342h-1.98Zm.99-10.224c-.336 0-.618-.114-.846-.342-.216-.228-.324-.51-.324-.846 0-.336.108-.618.324-.846.228-.228.51-.342.846-.342.348 0 .63.114.846.342.216.228.324.51.324.846 0 .336-.108.618-.324.846-.216.228-.498.342-.846.342ZM120.907 342v-4.986c0-.576-.186-1.05-.558-1.422-.36-.372-.828-.558-1.404-.558-.384 0-.726.084-1.026.252-.3.168-.534.402-.702.702-.168.3-.252.642-.252 1.026l-.774-.432c0-.66.144-1.242.432-1.746.288-.516.684-.918 1.188-1.206.516-.3 1.092-.45 1.728-.45.648 0 1.224.168 1.728.504.504.324.9.75 1.188 1.278.288.516.432 1.056.432 1.62V342h-1.98Zm-5.922 0v-8.64h1.98V342h-1.98Zm13.514 3.78c-.912 0-1.71-.168-2.394-.504-.684-.324-1.236-.786-1.656-1.386l1.296-1.296c.348.432.744.756 1.188.972.444.216.978.324 1.602.324.78 0 1.398-.204 1.854-.612.456-.396.684-.942.684-1.638v-2.124l.342-1.908-.342-1.926v-2.322h1.98v8.28c0 .828-.192 1.548-.576 2.16-.384.624-.918 1.11-1.602 1.458-.684.348-1.476.522-2.376.522Zm-.09-3.96c-.768 0-1.464-.186-2.088-.558-.612-.384-1.098-.906-1.458-1.566-.348-.66-.522-1.398-.522-2.214 0-.816.174-1.548.522-2.196.36-.648.846-1.158 1.458-1.53.624-.384 1.32-.576 2.088-.576.684 0 1.284.138 1.8.414.516.276.918.66 1.206 1.152.288.48.432 1.044.432 1.692v2.124c0 .636-.15 1.2-.45 1.692-.288.492-.69.876-1.206 1.152-.516.276-1.11.414-1.782.414Zm.396-1.872c.48 0 .9-.102 1.26-.306.36-.204.636-.486.828-.846.204-.372.306-.804.306-1.296s-.102-.918-.306-1.278c-.192-.372-.468-.66-.828-.864-.36-.204-.78-.306-1.26-.306s-.906.102-1.278.306c-.36.204-.642.492-.846.864-.204.36-.306.786-.306 1.278 0 .48.102.906.306 1.278.204.372.486.66.846.864.372.204.798.306 1.278.306Z" fill="#fff"/>
  <rect x="163.2" y="288" width="99.2" height="72" rx="5" fill="#7394CC"/>
  <path d="M184.623 331v-12.24h2.07V331h-2.07Zm-4.104-10.71v-1.89h10.278v1.89h-10.278Zm9.965 10.71v-8.64h1.98V331h-1.98Zm1.98-4.806-.684-.342c0-1.092.24-1.974.72-2.646.492-.684 1.23-1.026 2.214-1.026.432 0 .822.078 1.17.234.348.156.672.408.972.756l-1.296 1.332c-.156-.168-.33-.288-.522-.36-.192-.072-.414-.108-.666-.108-.552 0-1.008.174-1.368.522-.36.348-.54.894-.54 1.638Zm8.705 4.986c-.78 0-1.488-.198-2.124-.594-.624-.396-1.122-.93-1.494-1.602-.36-.684-.54-1.446-.54-2.286 0-.852.18-1.614.54-2.286.372-.684.87-1.224 1.494-1.62.636-.408 1.344-.612 2.124-.612.66 0 1.242.144 1.746.432.516.276.924.66 1.224 1.152.3.492.45 1.05.45 1.674v2.484c0 .624-.15 1.182-.45 1.674-.288.492-.69.882-1.206 1.17-.516.276-1.104.414-1.764.414Zm.324-1.872c.732 0 1.32-.246 1.764-.738.456-.492.684-1.122.684-1.89 0-.516-.102-.972-.306-1.368-.204-.396-.492-.702-.864-.918-.36-.228-.786-.342-1.278-.342-.48 0-.906.114-1.278.342-.36.216-.648.522-.864.918-.204.396-.306.852-.306 1.368 0 .516.102.972.306 1.368.216.396.504.708.864.936.372.216.798.324 1.278.324Zm2.322 1.692v-2.322l.342-2.106-.342-2.088v-2.124h1.98V331h-1.98Zm4.195 0v-8.64h1.98V331h-1.98Zm.99-10.224c-.336 0-.618-.114-.846-.342-.216-.228-.324-.51-.324-.846 0-.336.108-.618.324-.846.228-.228.51-.342.846-.342.348 0 .63.114.846.342.216.228.324.51.324.846 0 .336-.108.618-.324.846-.216.228-.498.342-.846.342ZM218.133 331v-4.986c0-.576-.186-1.05-.558-1.422-.36-.372-.828-.558-1.404-.558-.384 0-.726.084-1.026.252-.3.168-.534.402-.702.702-.168.3-.252.642-.252 1.026l-.774-.432c0-.66.144-1.242.432-1.746.288-.516.684-.918 1.188-1.206.516-.3 1.092-.45 1.728-.45.648 0 1.224.168 1.728.504.504.324.9.75 1.188 1.278.288.516.432 1.056.432 1.62V331h-1.98Zm-5.922 0v-8.64h1.98V331h-1.98Zm9.932 0v-8.64h1.98V331h-1.98Zm.99-10.224c-.336 0-.618-.114-.846-.342-.216-.228-.324-.51-.324-.846 0-.336.108-.618.324-.846.228-.228.51-.342.846-.342.348 0 .63.114.846.342.216.228.324.51.324.846 0 .336-.108.618-.324.846-.216.228-.498.342-.846.342ZM232.266 331v-4.986c0-.576-.186-1.05-.558-1.422-.36-.372-.828-.558-1.404-.558-.384 0-.726.084-1.026.252-.3.168-.534.402-.702.702-.168.3-.252.642-.252 1.026l-.774-.432c0-.66.144-1.242.432-1.746.288-.516.684-.918 1.188-1.206.516-.3 1.092-.45 1.728-.45.648 0 1.224.168 1.728.504.504.324.9.75 1.188 1.278.288.516.432 1.056.432 1.62V331h-1.98Zm-5.922 0v-8.64h1.98V331h-1.98Zm13.514 3.78c-.912 0-1.71-.168-2.394-.504-.684-.324-1.236-.786-1.656-1.386l1.296-1.296c.348.432.744.756 1.188.972.444.216.978.324 1.602.324.78 0 1.398-.204 1.854-.612.456-.396.684-.942.684-1.638v-2.124l.342-1.908-.342-1.926v-2.322h1.98v8.28c0 .828-.192 1.548-.576 2.16-.384.624-.918 1.11-1.602 1.458-.684.348-1.476.522-2.376.522Zm-.09-3.96c-.768 0-1.464-.186-2.088-.558-.612-.384-1.098-.906-1.458-1.566-.348-.66-.522-1.398-.522-2.214 0-.816.174-1.548.522-2.196.36-.648.846-1.158 1.458-1.53.624-.384 1.32-.576 2.088-.576.684 0 1.284.138 1.8.414.516.276.918.66 1.206 1.152.288.48.432 1.044.432 1.692v2.124c0 .636-.15 1.2-.45 1.692-.288.492-.69.876-1.206 1.152-.516.276-1.11.414-1.782.414Zm.396-1.872c.48 0 .9-.102 1.26-.306.36-.204.636-.486.828-.846.204-.372.306-.804.306-1.296s-.102-.918-.306-1.278c-.192-.372-.468-.66-.828-.864-.36-.204-.78-.306-1.26-.306s-.906.102-1.278.306c-.36.204-.642.492-.846.864-.204.36-.306.786-.306 1.278 0 .48.102.906.306 1.278.204.372.486.66.846.864.372.204.798.306 1.278.306Z" fill="#fff"/>
  <rect x="274.4" y="288" width="99.2" height="72" rx="5" fill="#7394CC"/>
  <path d="M301.993 331v-12.24h2.07V331h-2.07Zm-4.104-10.71v-1.89h10.278v1.89h-10.278Zm13.599 10.89c-.732 0-1.386-.162-1.962-.486-.564-.324-1.008-.768-1.332-1.332-.312-.576-.468-1.236-.468-1.98v-5.022h1.98v4.932c0 .42.066.78.198 1.08.144.288.348.51.612.666.276.156.6.234.972.234.576 0 1.014-.168 1.314-.504.312-.348.468-.84.468-1.476v-4.932h1.98v5.022c0 .756-.162 1.422-.486 1.998-.312.564-.75 1.008-1.314 1.332-.564.312-1.218.468-1.962.468Zm11.675-.18v-4.986c0-.576-.186-1.05-.558-1.422-.36-.372-.828-.558-1.404-.558-.384 0-.726.084-1.026.252-.3.168-.534.402-.702.702-.168.3-.252.642-.252 1.026l-.774-.432c0-.66.144-1.242.432-1.746.288-.516.684-.918 1.188-1.206.516-.3 1.092-.45 1.728-.45.648 0 1.224.168 1.728.504.504.324.9.75 1.188 1.278.288.516.432 1.056.432 1.62V331h-1.98Zm-5.922 0v-8.64h1.98V331h-1.98Zm9.932 0v-8.64h1.98V331h-1.98Zm.99-10.224c-.336 0-.618-.114-.846-.342-.216-.228-.324-.51-.324-.846 0-.336.108-.618.324-.846.228-.228.51-.342.846-.342.348 0 .63.114.846.342.216.228.324.51.324.846 0 .336-.108.618-.324.846-.216.228-.498.342-.846.342ZM337.295 331v-4.986c0-.576-.186-1.05-.558-1.422-.36-.372-.828-.558-1.404-.558-.384 0-.726.084-1.026.252-.3.168-.534.402-.702.702-.168.3-.252.642-.252 1.026l-.774-.432c0-.66.144-1.242.432-1.746.288-.516.684-.918 1.188-1.206.516-.3 1.092-.45 1.728-.45.648 0 1.224.168 1.728.504.504.324.9.75 1.188 1.278.288.516.432 1.056.432 1.62V331h-1.98Zm-5.922 0v-8.64h1.98V331h-1.98Zm13.514 3.78c-.912 0-1.71-.168-2.394-.504-.684-.324-1.236-.786-1.656-1.386l1.296-1.296c.348.432.744.756 1.188.972.444.216.978.324 1.602.324.78 0 1.398-.204 1.854-.612.456-.396.684-.942.684-1.638v-2.124l.342-1.908-.342-1.926v-2.322h1.98v8.28c0 .828-.192 1.548-.576 2.16-.384.624-.918 1.11-1.602 1.458-.684.348-1.476.522-2.376.522Zm-.09-3.96c-.768 0-1.464-.186-2.088-.558-.612-.384-1.098-.906-1.458-1.566-.348-.66-.522-1.398-.522-2.214 0-.816.174-1.548.522-2.196.36-.648.846-1.158 1.458-1.53.624-.384 1.32-.576 2.088-.576.684 0 1.284.138 1.8.414.516.276.918.66 1.206 1.152.288.48.432 1.044.432 1.692v2.124c0 .636-.15 1.2-.45 1.692-.288.492-.69.876-1.206 1.152-.516.276-1.11.414-1.782.414Zm.396-1.872c.48 0 .9-.102 1.26-.306.36-.204.636-.486.828-.846.204-.372.306-.804.306-1.296s-.102-.918-.306-1.278c-.192-.372-.468-.66-.828-.864-.36-.204-.78-.306-1.26-.306s-.906.102-1.278.306c-.36.204-.642.492-.846.864-.204.36-.306.786-.306 1.278 0 .48.102.906.306 1.278.204.372.486.66.846.864.372.204.798.306 1.278.306Z" fill="#fff"/>
  <rect x="385.6" y="288" width="99.2" height="72" rx="5" fill="#7394CC"/>
  <path d="M418.092 325.654v-1.71h3.186c.636 0 1.128-.162 1.476-.486.36-.336.54-.798.54-1.386 0-.528-.174-.972-.522-1.332-.348-.36-.84-.54-1.476-.54h-3.204v-1.8h3.294c.792 0 1.488.162 2.088.486.6.312 1.062.744 1.386 1.296.336.54.504 1.158.504 1.854 0 .732-.168 1.368-.504 1.908-.324.54-.786.96-1.386 1.26-.6.3-1.296.45-2.088.45h-3.294ZM416.67 331v-12.6h2.07V331h-2.07Zm6.912 0-4.41-5.472 1.926-.702 5.094 6.174h-2.61Zm4.144 0v-12.6h2.07V331h-2.07Zm1.422 0v-1.89h6.588V331h-6.588Zm8.205 0v-12.96h1.98V331h-1.98Zm4.201 0v-8.64h1.98V331h-1.98Zm.99-10.224c-.336 0-.618-.114-.846-.342-.216-.228-.324-.51-.324-.846 0-.336.108-.618.324-.846.228-.228.51-.342.846-.342.348 0 .63.114.846.342.216.228.324.51.324.846 0 .336-.108.618-.324.846-.216.228-.498.342-.846.342Zm7.837 10.404c-.66 0-1.248-.138-1.764-.414-.516-.288-.924-.678-1.224-1.17-.288-.492-.432-1.05-.432-1.674v-2.484c0-.624.15-1.182.45-1.674.3-.492.708-.876 1.224-1.152.516-.288 1.098-.432 1.746-.432.78 0 1.482.204 2.106.612.636.396 1.134.936 1.494 1.62.372.672.558 1.434.558 2.286 0 .84-.186 1.602-.558 2.286-.36.672-.858 1.206-1.494 1.602-.624.396-1.326.594-2.106.594Zm-.324-1.872c.48 0 .9-.108 1.26-.324.372-.228.66-.54.864-.936.216-.396.324-.852.324-1.368 0-.516-.108-.972-.324-1.368-.204-.396-.492-.702-.864-.918-.36-.228-.78-.342-1.26-.342s-.906.114-1.278.342c-.372.216-.66.522-.864.918-.204.396-.306.852-.306 1.368 0 .516.102.972.306 1.368.204.396.492.708.864.936.372.216.798.324 1.278.324ZM445.755 331v-12.96h1.98v6.444l-.342 2.088.342 2.106V331h-1.98Z" fill="#fff"/>
  <rect x="496.8" y="288" width="99.2" height="72" rx="5" fill="#7394CC"/>
  <path d="M521.199 320v-12.6h1.44l5.238 8.622h-.936l5.238-8.622h1.44V320h-2.07v-8.964l.468.126-3.888 6.39h-1.44l-3.888-6.39.468-.126V320h-2.07Zm18.842.18c-.84 0-1.602-.198-2.286-.594-.684-.408-1.23-.954-1.638-1.638-.396-.684-.594-1.446-.594-2.286 0-.84.198-1.596.594-2.268.408-.672.954-1.206 1.638-1.602.684-.408 1.446-.612 2.286-.612.852 0 1.62.198 2.304.594.684.396 1.224.936 1.62 1.62.408.672.612 1.428.612 2.268 0 .84-.204 1.602-.612 2.286-.396.684-.936 1.23-1.62 1.638-.684.396-1.452.594-2.304.594Zm0-1.908c.492 0 .924-.108 1.296-.324.384-.228.678-.54.882-.936.216-.396.324-.846.324-1.35 0-.504-.108-.948-.324-1.332-.216-.384-.51-.684-.882-.9-.372-.228-.804-.342-1.296-.342-.48 0-.912.114-1.296.342-.372.216-.666.516-.882.9-.204.384-.306.828-.306 1.332 0 .504.102.954.306 1.35.216.396.51.708.882.936.384.216.816.324 1.296.324Zm9.8 1.908c-.78 0-1.488-.198-2.124-.594-.624-.396-1.122-.93-1.494-1.602-.36-.684-.54-1.446-.54-2.286 0-.852.18-1.614.54-2.286.372-.684.87-1.224 1.494-1.62.636-.408 1.344-.612 2.124-.612.66 0 1.242.144 1.746.432.516.276.924.66 1.224 1.152.3.492.45 1.05.45 1.674v2.484c0 .624-.15 1.182-.45 1.674-.288.492-.69.882-1.206 1.17-.516.276-1.104.414-1.764.414Zm.324-1.872c.492 0 .918-.108 1.278-.324.372-.228.66-.54.864-.936.204-.396.306-.852.306-1.368 0-.516-.102-.972-.306-1.368-.204-.396-.492-.702-.864-.918-.36-.228-.786-.342-1.278-.342-.48 0-.906.114-1.278.342-.36.216-.648.522-.864.918-.204.396-.306.852-.306 1.368 0 .516.102.972.306 1.368.216.396.504.708.864.936.372.216.798.324 1.278.324Zm4.302 1.692h-1.98v-2.322l.342-2.106-.342-2.088v-6.444h1.98V320Zm6.212.18c-.864 0-1.644-.192-2.34-.576-.684-.396-1.23-.936-1.638-1.62-.396-.684-.594-1.452-.594-2.304 0-.852.198-1.614.594-2.286.396-.684.93-1.224 1.602-1.62.684-.396 1.44-.594 2.268-.594.804 0 1.512.186 2.124.558.624.372 1.11.882 1.458 1.53.36.648.54 1.386.54 2.214 0 .144-.012.294-.036.45-.012.144-.036.306-.072.486h-7.092v-1.62h6.066l-.738.648c-.024-.528-.126-.972-.306-1.332-.18-.36-.438-.636-.774-.828-.324-.192-.726-.288-1.206-.288-.504 0-.942.108-1.314.324-.372.216-.66.522-.864.918-.204.384-.306.846-.306 1.386 0 .54.108 1.014.324 1.422.216.408.522.726.918.954.396.216.852.324 1.368.324.444 0 .852-.078 1.224-.234.384-.156.708-.384.972-.684l1.26 1.278c-.42.492-.93.864-1.53 1.116-.6.252-1.236.378-1.908.378Zm5.601-.18v-12.96h1.98V320h-1.98Zm-45.193 22.18c-.996 0-1.842-.18-2.538-.54-.696-.36-1.32-.888-1.872-1.584l1.404-1.404c.348.504.762.9 1.242 1.188.48.276 1.092.414 1.836.414.696 0 1.248-.144 1.656-.432.42-.288.63-.684.63-1.188 0-.42-.108-.762-.324-1.026-.216-.264-.504-.48-.864-.648-.348-.18-.738-.336-1.17-.468-.42-.144-.846-.3-1.278-.468-.42-.18-.81-.402-1.17-.666-.348-.264-.63-.606-.846-1.026-.216-.42-.324-.954-.324-1.602 0-.744.18-1.374.54-1.89.372-.528.87-.93 1.494-1.206.624-.276 1.32-.414 2.088-.414.828 0 1.566.162 2.214.486.66.324 1.194.738 1.602 1.242l-1.404 1.404c-.36-.408-.738-.708-1.134-.9-.384-.204-.828-.306-1.332-.306-.624 0-1.116.126-1.476.378-.348.252-.522.606-.522 1.062 0 .384.108.696.324.936.216.228.498.426.846.594.36.156.75.306 1.17.45.432.144.858.306 1.278.486.432.18.822.414 1.17.702.36.276.648.636.864 1.08.216.444.324 1.002.324 1.674 0 1.128-.402 2.022-1.206 2.682-.792.66-1.866.99-3.222.99Zm10.131 0c-.864 0-1.644-.192-2.34-.576-.684-.396-1.23-.936-1.638-1.62-.396-.684-.594-1.452-.594-2.304 0-.852.198-1.614.594-2.286.396-.684.93-1.224 1.602-1.62.684-.396 1.44-.594 2.268-.594.804 0 1.512.186 2.124.558.624.372 1.11.882 1.458 1.53.36.648.54 1.386.54 2.214 0 .144-.012.294-.036.45-.012.144-.036.306-.072.486h-7.092v-1.62h6.066l-.738.648c-.024-.528-.126-.972-.306-1.332-.18-.36-.438-.636-.774-.828-.324-.192-.726-.288-1.206-.288-.504 0-.942.108-1.314.324-.372.216-.66.522-.864.918-.204.384-.306.846-.306 1.386 0 .54.108 1.014.324 1.422.216.408.522.726.918.954.396.216.852.324 1.368.324.444 0 .852-.078 1.224-.234.384-.156.708-.384.972-.684l1.26 1.278c-.42.492-.93.864-1.53 1.116-.6.252-1.236.378-1.908.378Zm5.601-.18v-8.64h1.98V342h-1.98Zm1.98-4.806-.684-.342c0-1.092.24-1.974.72-2.646.492-.684 1.23-1.026 2.214-1.026.432 0 .822.078 1.17.234.348.156.672.408.972.756l-1.296 1.332c-.156-.168-.33-.288-.522-.36-.192-.072-.414-.108-.666-.108-.552 0-1.008.174-1.368.522-.36.348-.54.894-.54 1.638Zm8.143 4.806L543 333.36h2.196l3.006 7.038h-1.296l3.024-7.038h2.106l-3.942 8.64h-1.152Zm6.278 0v-8.64h1.98V342h-1.98Zm.99-10.224c-.336 0-.618-.114-.846-.342-.216-.228-.324-.51-.324-.846 0-.336.108-.618.324-.846.228-.228.51-.342.846-.342.348 0 .63.114.846.342.216.228.324.51.324.846 0 .336-.108.618-.324.846-.216.228-.498.342-.846.342ZM563.343 342v-4.986c0-.576-.186-1.05-.558-1.422-.36-.372-.828-.558-1.404-.558-.384 0-.726.084-1.026.252-.3.168-.534.402-.702.702-.168.3-.252.642-.252 1.026l-.774-.432c0-.66.144-1.242.432-1.746.288-.516.684-.918 1.188-1.206.516-.3 1.092-.45 1.728-.45.648 0 1.224.168 1.728.504.504.324.9.75 1.188 1.278.288.516.432 1.056.432 1.62V342h-1.98Zm-5.922 0v-8.64h1.98V342h-1.98Zm13.514 3.78c-.912 0-1.71-.168-2.394-.504-.684-.324-1.236-.786-1.656-1.386l1.296-1.296c.348.432.744.756 1.188.972.444.216.978.324 1.602.324.78 0 1.398-.204 1.854-.612.456-.396.684-.942.684-1.638v-2.124l.342-1.908-.342-1.926v-2.322h1.98v8.28c0 .828-.192 1.548-.576 2.16-.384.624-.918 1.11-1.602 1.458-.684.348-1.476.522-2.376.522Zm-.09-3.96c-.768 0-1.464-.186-2.088-.558-.612-.384-1.098-.906-1.458-1.566-.348-.66-.522-1.398-.522-2.214 0-.816.174-1.548.522-2.196.36-.648.846-1.158 1.458-1.53.624-.384 1.32-.576 2.088-.576.684 0 1.284.138 1.8.414.516.276.918.66 1.206 1.152.288.48.432 1.044.432 1.692v2.124c0 .636-.15 1.2-.45 1.692-.288.492-.69.876-1.206 1.152-.516.276-1.11.414-1.782.414Zm.396-1.872c.48 0 .9-.102 1.26-.306.36-.204.636-.486.828-.846.204-.372.306-.804.306-1.296s-.102-.918-.306-1.278c-.192-.372-.468-.66-.828-.864-.36-.204-.78-.306-1.26-.306s-.906.102-1.278.306c-.36.204-.642.492-.846.864-.204.36-.306.786-.306 1.278 0 .48.102.906.306 1.278.204.372.486.66.846.864.372.204.798.306 1.278.306Z" fill="#fff"/>
  <rect x="52" y="376" width="544" height="42" rx="5" fill="#7394CC"/>
  <path d="M266.356 398.654v-1.71h3.186c.636 0 1.128-.162 1.476-.486.36-.336.54-.798.54-1.386 0-.528-.174-.972-.522-1.332-.348-.36-.84-.54-1.476-.54h-3.204v-1.8h3.294c.792 0 1.488.162 2.088.486.6.312 1.062.744 1.386 1.296.336.54.504 1.158.504 1.854 0 .732-.168 1.368-.504 1.908-.324.54-.786.96-1.386 1.26-.6.3-1.296.45-2.088.45h-3.294ZM264.934 404v-12.6h2.07V404h-2.07Zm6.912 0-4.41-5.472 1.926-.702 5.094 6.174h-2.61Zm7.229.18c-.78 0-1.488-.198-2.124-.594-.624-.396-1.122-.93-1.494-1.602-.36-.684-.54-1.446-.54-2.286 0-.852.18-1.614.54-2.286.372-.684.87-1.224 1.494-1.62.636-.408 1.344-.612 2.124-.612.66 0 1.242.144 1.746.432.516.276.924.66 1.224 1.152.3.492.45 1.05.45 1.674v2.484c0 .624-.15 1.182-.45 1.674-.288.492-.69.882-1.206 1.17-.516.276-1.104.414-1.764.414Zm.324-1.872c.732 0 1.32-.246 1.764-.738.456-.492.684-1.122.684-1.89 0-.516-.102-.972-.306-1.368-.204-.396-.492-.702-.864-.918-.36-.228-.786-.342-1.278-.342-.48 0-.906.114-1.278.342-.36.216-.648.522-.864.918-.204.396-.306.852-.306 1.368 0 .516.102.972.306 1.368.216.396.504.708.864.936.372.216.798.324 1.278.324Zm2.322 1.692v-2.322l.342-2.106-.342-2.088v-2.124h1.98V404h-1.98Zm6.968.09-3.69-8.73h2.178l2.52 6.408h-.63l2.664-6.408h2.196l-4.014 8.73h-1.224Zm-2.574 3.51 2.682-5.526 1.116 2.016-1.602 3.51h-2.196Zm11.528-3.6 5.184-12.6h1.44l5.148 12.6h-2.232l-4.032-10.206h.756L299.839 404h-2.196Zm2.556-2.43v-1.8h6.678v1.8h-6.678Zm10.878 2.43v-12.6h2.07V404h-2.07Zm9.824-5.346v-1.71h3.186c.636 0 1.128-.162 1.476-.486.36-.336.54-.798.54-1.386 0-.528-.174-.972-.522-1.332-.348-.36-.84-.54-1.476-.54h-3.204v-1.8h3.294c.792 0 1.488.162 2.088.486.6.312 1.062.744 1.386 1.296.336.54.504 1.158.504 1.854 0 .732-.168 1.368-.504 1.908-.324.54-.786.96-1.386 1.26-.6.3-1.296.45-2.088.45h-3.294ZM319.479 404v-12.6h2.07V404h-2.07Zm6.912 0-4.41-5.472 1.926-.702 5.094 6.174h-2.61Zm7.439.18c-.732 0-1.386-.162-1.962-.486-.564-.324-1.008-.768-1.332-1.332-.312-.576-.468-1.236-.468-1.98v-5.022h1.98v4.932c0 .42.066.78.198 1.08.144.288.348.51.612.666.276.156.6.234.972.234.576 0 1.014-.168 1.314-.504.312-.348.468-.84.468-1.476v-4.932h1.98v5.022c0 .756-.162 1.422-.486 1.998-.312.564-.75 1.008-1.314 1.332-.564.312-1.218.468-1.962.468Zm11.674-.18v-4.986c0-.576-.186-1.05-.558-1.422-.36-.372-.828-.558-1.404-.558-.384 0-.726.084-1.026.252-.3.168-.534.402-.702.702-.168.3-.252.642-.252 1.026l-.774-.432c0-.66.144-1.242.432-1.746.288-.516.684-.918 1.188-1.206.516-.3 1.092-.45 1.728-.45.648 0 1.224.168 1.728.504.504.324.9.75 1.188 1.278.288.516.432 1.056.432 1.62V404h-1.98Zm-5.922 0v-8.64h1.98V404h-1.98Zm11.123 0v-12.24h1.98V404h-1.98Zm-2.07-6.84v-1.8h6.12v1.8h-6.12Zm7.577 6.84v-8.64h1.98V404h-1.98Zm.99-10.224c-.336 0-.618-.114-.846-.342-.216-.228-.324-.51-.324-.846 0-.336.108-.618.324-.846.228-.228.51-.342.846-.342.348 0 .63.114.846.342.216.228.324.51.324.846 0 .336-.108.618-.324.846-.216.228-.498.342-.846.342Zm3.21 10.224v-8.64h1.98V404h-1.98Zm5.742 0v-5.148c0-.576-.18-1.02-.54-1.332-.36-.324-.804-.486-1.332-.486-.36 0-.684.072-.972.216-.276.144-.498.354-.666.63-.168.264-.252.588-.252.972l-.774-.432c0-.66.144-1.23.432-1.71.288-.48.678-.852 1.17-1.116.492-.276 1.044-.414 1.656-.414.612 0 1.164.132 1.656.396s.882.636 1.17 1.116c.288.48.432 1.056.432 1.728V404h-1.98Zm5.742 0v-5.148c0-.576-.18-1.02-.54-1.332-.36-.324-.804-.486-1.332-.486-.348 0-.666.072-.954.216-.288.144-.516.354-.684.63-.168.264-.252.588-.252.972l-1.116-.432c.06-.66.252-1.23.576-1.71.324-.48.738-.852 1.242-1.116.516-.276 1.08-.414 1.692-.414.624 0 1.188.132 1.692.396s.906.636 1.206 1.116c.3.48.45 1.056.45 1.728V404h-1.98Zm8.034.18c-.864 0-1.644-.192-2.34-.576-.684-.396-1.23-.936-1.638-1.62-.396-.684-.594-1.452-.594-2.304 0-.852.198-1.614.594-2.286.396-.684.93-1.224 1.602-1.62.684-.396 1.44-.594 2.268-.594.804 0 1.512.186 2.124.558.624.372 1.11.882 1.458 1.53.36.648.54 1.386.54 2.214 0 .144-.012.294-.036.45-.012.144-.036.306-.072.486h-7.092v-1.62h6.066l-.738.648c-.024-.528-.126-.972-.306-1.332-.18-.36-.438-.636-.774-.828-.324-.192-.726-.288-1.206-.288-.504 0-.942.108-1.314.324-.372.216-.66.522-.864.918-.204.384-.306.846-.306 1.386 0 .54.108 1.014.324 1.422.216.408.522.726.918.954.396.216.852.324 1.368.324.444 0 .852-.078 1.224-.234.384-.156.708-.384.972-.684l1.26 1.278c-.42.492-.93.864-1.53 1.116-.6.252-1.236.378-1.908.378Z" fill="#fff"/>
  <path fill-rule="evenodd" clip-rule="evenodd" d="M83.5064 434.085c1.8665.355 3.358 1.845 3.7108 3.707.2089 1.103.0216 2.22-.4995 3.17l-.1262.216 6.9473 6.929c.5145-.348 1.0946-.605 1.7236-.724 1.5589-.295 3.1482.188 4.2543 1.292 1.1063 1.104 1.5893 2.689 1.2923 4.242-.335 1.754-1.6824 3.169-3.3986 3.622 0 0-.1315.033-.2164.051-.635.136-1.6615.06-1.6615.06-.628-.087-1.2321-.295-1.7756-.619l-.2291-.145-6.9434 6.925c.2995.478.525 1.007.6328 1.577.2938 1.551-.1904 3.135-1.2955 4.236-.892.89-2.0991 1.376-3.3495 1.376-.2986 0-.5991-.028-.8991-.084-1.8675-.352-3.3604-1.84-3.715-3.703-.2962-1.554.1885-3.14 1.2955-4.243 1.1065-1.103 2.6967-1.584 4.2528-1.289.6384.122 1.23.378 1.7492.735l.218.159 6.8708-6.852c-.3547-.499-.612-1.057-.7526-1.648l-.053-.255-4.3126.007c-.1681.937-.6152 1.812-1.3045 2.5-.892.889-2.0991 1.375-3.3495 1.375-.2986 0-.5995-.027-.8991-.084-1.8675-.352-3.3604-1.84-3.715-3.703l-.0063-.047-.006-.048-4.3113.007c-.0052.03-.0057.06-.0114.09-.356 1.861-1.8494 3.349-3.7169 3.701-.2995.056-.6.084-.8981.084-1.2509 0-2.458-.487-3.35-1.376-1.1046-1.102-1.5888-2.686-1.295-4.238.3532-1.862 1.8452-3.351 3.7127-3.705 1.5589-.295 3.1482.188 4.2547 1.292.6253.624 1.051 1.402 1.2494 2.242l.0527.253 4.3174-.007c.1695-.934.6162-1.806 1.3036-2.491 1.1065-1.103 2.6967-1.584 4.2528-1.289 1.8665.355 3.358 1.845 3.7108 3.707l.0054.04.005.04 4.3127-.007.0095-.075c.1113-.587.3393-1.135.654-1.624l.1401-.206-6.8646-6.846c-.8298.643-1.8523.993-2.9071.993-.2986 0-.5991-.028-.8991-.085-1.8675-.352-3.3296-1.691-3.715-3.703-.1511-.789-.129-1.277.0683-2.056.2405-.949.6195-1.581 1.2267-2.186 1.107-1.104 2.6972-1.585 4.2533-1.29Zm-3.0784 29.057c.5829-.581 1.3458-.891 2.1561-.891.2012 0 .4058.019.6114.058 1.2019.228 2.1622 1.187 2.3892 2.386.1946 1.028-.1106 2.033-.8374 2.758-.7277.725-1.7365 1.03-2.7656.835-1.202-.227-2.1632-1.185-2.3916-2.385-.196-1.028.1092-2.035.8379-2.761Zm15.1444-14.131c.205-.039.4092-.058.61-.058.8117 0 1.576.311 2.1594.893.7272.727 1.032 1.733.8355 2.76-.2288 1.199-1.1906 2.157-2.393 2.383-1.0306.195-2.0379-.11-2.7647-.835-.7267-.725-1.0324-1.73-.8373-2.758.2273-1.198 1.1881-2.157 2.3901-2.385Zm-15.1444.833c.5829-.581 1.3458-.891 2.1561-.891.2017 0 .4058.019.6114.058 1.2019.228 2.1622 1.188 2.3892 2.386.1946 1.028-.1106 2.033-.8379 2.758-.7272.725-1.735 1.03-2.7651.835-1.202-.227-2.1632-1.185-2.3916-2.384-.196-1.029.1092-2.036.8379-2.762Zm-12.0418-.833c.2046-.039.4087-.058.61-.058.8118 0 1.576.311 2.159.893.7277.727 1.0324 1.733.8354 2.76-.2288 1.199-1.1905 2.157-2.3929 2.383-1.0306.195-2.0379-.111-2.7647-.835-.7268-.725-1.032-1.73-.8369-2.758.2269-1.198 1.1877-2.157 2.3901-2.385Zm12.0413-12.465c.5834-.58 1.3463-.891 2.1566-.891.2012 0 .4058.019.6114.058 1.2019.228 2.1622 1.188 2.3892 2.387.1946 1.027-.1106 2.032-.8374 2.757-.7273.725-1.7351 1.03-2.7656.835-1.202-.227-2.1632-1.185-2.3916-2.384-.196-1.029.1092-2.036.8374-2.762Zm43.7345 6.317c4.578 0 7.225 2.231 7.225 6.132 0 3.033-1.469 5.06-4.117 5.929l4.305 6.235h-2.391l-3.809-5.826c-.394.016-.803.051-1.23.051h-4.868v5.775h-2.102v-18.296h6.987Zm29.587-.018 5.944 9.541 5.876-9.54h2.153l-6.971 12.025.001.002v6.269h-2.067v-6.201l-7.107-12.096h2.171Zm-9.636-.001 8.199 18.297h-2.272l-2.05-4.617h-10.009l-2.051 4.617h-2.22l8.233-18.297h2.17Zm-1.144 2.385-4.1 9.285h8.233l-4.133-9.285Zm-18.825-.357h-4.868v8.484h4.868c3.33 0 5.21-1.466 5.21-4.311 0-2.759-1.88-4.173-5.21-4.173Z" fill="#fff"/>
  <path d="M206.708 459.2c-1.054 0-2-.24-2.84-.72-.84-.48-1.507-1.133-2-1.96-.48-.84-.72-1.787-.72-2.84V445h2.3v8.66c0 .68.14 1.273.42 1.78.293.493.686.88 1.18 1.16.493.267 1.046.4 1.66.4.626 0 1.18-.133 1.66-.4.48-.28.86-.667 1.14-1.16.28-.507.42-1.093.42-1.76V445h2.3v8.7c0 1.053-.24 1.993-.72 2.82-.48.827-1.134 1.48-1.96 1.96-.827.48-1.774.72-2.84.72Zm14.688-.2v-5.54c0-.64-.206-1.167-.62-1.58-.4-.413-.92-.62-1.56-.62-.426 0-.806.093-1.14.28-.333.187-.593.447-.78.78-.186.333-.28.713-.28 1.14l-.86-.48c0-.733.16-1.38.48-1.94.32-.573.76-1.02 1.32-1.34.574-.333 1.214-.5 1.92-.5.72 0 1.36.187 1.92.56.56.36 1 .833 1.32 1.42.32.573.48 1.173.48 1.8V459h-2.2Zm-6.58 0v-9.6h2.2v9.6h-2.2Zm11.036 0v-9.6h2.2v9.6h-2.2Zm1.1-11.36c-.374 0-.687-.127-.94-.38-.24-.253-.36-.567-.36-.94s.12-.687.36-.94c.253-.253.566-.38.94-.38.386 0 .7.127.94.38s.36.567.36.94-.12.687-.36.94c-.24.253-.554.38-.94.38Zm4.887 11.36v-11.26c0-.64.14-1.207.42-1.7.294-.507.694-.907 1.2-1.2.507-.293 1.1-.44 1.78-.44.507 0 .947.087 1.32.26.387.16.747.393 1.08.7l-1.44 1.44c-.133-.107-.28-.187-.44-.24-.146-.067-.32-.1-.52-.1-.386 0-.686.113-.9.34-.2.227-.3.533-.3.92V459h-2.2Zm-2.3-7.6v-2h9.36v2h-9.36Zm8.1 7.6v-9.6h2.2v9.6h-2.2Zm1.1-10.44c-.373 0-.686-.127-.94-.38-.24-.253-.36-.567-.36-.94s.12-.687.36-.94c.254-.253.567-.38.94-.38.387 0 .7.127.94.38s.36.567.36.94-.12.687-.36.94c-.24.253-.553.38-.94.38Zm8.018 10.64c-.96 0-1.827-.213-2.6-.64-.76-.44-1.367-1.04-1.82-1.8-.44-.76-.66-1.613-.66-2.56 0-.947.22-1.793.66-2.54.44-.76 1.033-1.36 1.78-1.8.76-.44 1.6-.66 2.52-.66.893 0 1.68.207 2.36.62.693.413 1.233.98 1.62 1.7.4.72.6 1.54.6 2.46 0 .16-.014.327-.04.5-.014.16-.04.34-.08.54h-7.88v-1.8h6.74l-.82.72c-.027-.587-.14-1.08-.34-1.48-.2-.4-.487-.707-.86-.92-.36-.213-.807-.32-1.34-.32-.56 0-1.047.12-1.46.36-.414.24-.734.58-.96 1.02-.227.427-.34.94-.34 1.54 0 .6.12 1.127.36 1.58.24.453.58.807 1.02 1.06.44.24.946.36 1.52.36.493 0 .946-.087 1.36-.26.426-.173.786-.427 1.08-.76l1.4 1.42c-.467.547-1.034.96-1.7 1.24-.667.28-1.374.42-2.12.42Zm10.243 0c-.866 0-1.653-.22-2.36-.66-.693-.44-1.246-1.033-1.66-1.78-.4-.76-.6-1.607-.6-2.54 0-.947.2-1.793.6-2.54.414-.76.967-1.36 1.66-1.8.707-.453 1.494-.68 2.36-.68.734 0 1.38.16 1.94.48.574.307 1.027.733 1.36 1.28.334.547.5 1.167.5 1.86v2.76c0 .693-.166 1.313-.5 1.86-.32.547-.766.98-1.34 1.3-.573.307-1.226.46-1.96.46Zm.36-2.08c.547 0 1.02-.12 1.42-.36.414-.253.734-.6.96-1.04.227-.44.34-.947.34-1.52 0-.573-.113-1.08-.34-1.52-.226-.44-.546-.78-.96-1.02-.4-.253-.873-.38-1.42-.38-.533 0-1.006.127-1.42.38-.4.24-.72.58-.96 1.02-.226.44-.34.947-.34 1.52 0 .573.114 1.08.34 1.52.24.44.56.787.96 1.04.414.24.887.36 1.42.36Zm4.78 1.88h-2.2v-2.58l.38-2.34-.38-2.32v-7.16h2.2V459Zm6.746 0v-14h2.3v14h-2.3Zm1.58-6v-2.1h7.12v2.1h-7.12Zm0-5.9V445h7.46v2.1h-7.46Zm9.448 11.9v-9.6h2.2v9.6h-2.2Zm2.2-5.34-.76-.38c0-1.213.267-2.193.8-2.94.547-.76 1.367-1.14 2.46-1.14.48 0 .913.087 1.3.26.387.173.747.453 1.08.84l-1.44 1.48c-.173-.187-.367-.32-.58-.4-.213-.08-.46-.12-.74-.12-.613 0-1.12.193-1.52.58-.4.387-.6.993-.6 1.82Zm9.671 5.54c-.866 0-1.653-.22-2.36-.66-.693-.44-1.246-1.033-1.66-1.78-.4-.76-.6-1.607-.6-2.54 0-.947.2-1.793.6-2.54.414-.76.967-1.36 1.66-1.8.707-.453 1.494-.68 2.36-.68.734 0 1.38.16 1.94.48.574.307 1.027.733 1.36 1.28.334.547.5 1.167.5 1.86v2.76c0 .693-.166 1.313-.5 1.86-.32.547-.766.98-1.34 1.3-.573.307-1.226.46-1.96.46Zm.36-2.08c.814 0 1.467-.273 1.96-.82.507-.547.76-1.247.76-2.1 0-.573-.113-1.08-.34-1.52-.226-.44-.546-.78-.96-1.02-.4-.253-.873-.38-1.42-.38-.533 0-1.006.127-1.42.38-.4.24-.72.58-.96 1.02-.226.44-.34.947-.34 1.52 0 .573.114 1.08.34 1.52.24.44.56.787.96 1.04.414.24.887.36 1.42.36Zm2.58 1.88v-2.58l.38-2.34-.38-2.32v-2.36h2.2v9.6h-2.2Zm4.642 0v-9.6h2.2v9.6h-2.2Zm6.38 0v-5.72c0-.64-.2-1.133-.6-1.48-.4-.36-.893-.54-1.48-.54-.4 0-.76.08-1.08.24-.307.16-.553.393-.74.7-.187.293-.28.653-.28 1.08l-.86-.48c0-.733.16-1.367.48-1.9.32-.533.753-.947 1.3-1.24.547-.307 1.16-.46 1.84-.46.68 0 1.293.147 1.84.44.547.293.98.707 1.3 1.24.32.533.48 1.173.48 1.92v6.2h-2.2Zm6.38 0v-5.72c0-.64-.2-1.133-.6-1.48-.4-.36-.893-.54-1.48-.54-.387 0-.74.08-1.06.24-.32.16-.573.393-.76.7-.187.293-.28.653-.28 1.08l-1.24-.48c.067-.733.28-1.367.64-1.9.36-.533.82-.947 1.38-1.24.573-.307 1.2-.46 1.88-.46.693 0 1.32.147 1.88.44.56.293 1.007.707 1.34 1.24.333.533.5 1.173.5 1.92v6.2h-2.2Zm8.927.2c-.96 0-1.827-.213-2.6-.64-.76-.44-1.367-1.04-1.82-1.8-.44-.76-.66-1.613-.66-2.56 0-.947.22-1.793.66-2.54.44-.76 1.033-1.36 1.78-1.8.76-.44 1.6-.66 2.52-.66.893 0 1.68.207 2.36.62.693.413 1.233.98 1.62 1.7.4.72.6 1.54.6 2.46 0 .16-.014.327-.04.5-.014.16-.04.34-.08.54h-7.88v-1.8h6.74l-.82.72c-.027-.587-.14-1.08-.34-1.48-.2-.4-.487-.707-.86-.92-.36-.213-.807-.32-1.34-.32-.56 0-1.047.12-1.46.36-.414.24-.734.58-.96 1.02-.227.427-.34.94-.34 1.54 0 .6.12 1.127.36 1.58.24.453.58.807 1.02 1.06.44.24.946.36 1.52.36.493 0 .946-.087 1.36-.26.426-.173.786-.427 1.08-.76l1.4 1.42c-.467.547-1.034.96-1.7 1.24-.667.28-1.374.42-2.12.42Zm8.906-.2-3.86-9.6h2.28l2.6 6.98-.68.02 2.54-7h1.28l2.54 7-.68-.02 2.6-6.98h2.28L337 459h-1.28l-2.6-6.64h.72l-2.6 6.64h-1.28Zm16.444.2c-.934 0-1.78-.22-2.54-.66-.76-.453-1.367-1.06-1.82-1.82-.44-.76-.66-1.607-.66-2.54s.22-1.773.66-2.52c.453-.747 1.06-1.34 1.82-1.78.76-.453 1.606-.68 2.54-.68.946 0 1.8.22 2.56.66.76.44 1.36 1.04 1.8 1.8.453.747.68 1.587.68 2.52s-.227 1.78-.68 2.54c-.44.76-1.04 1.367-1.8 1.82-.76.44-1.614.66-2.56.66Zm0-2.12c.546 0 1.026-.12 1.44-.36.426-.253.753-.6.98-1.04.24-.44.36-.94.36-1.5s-.12-1.053-.36-1.48c-.24-.427-.567-.76-.98-1-.414-.253-.894-.38-1.44-.38-.534 0-1.014.127-1.44.38-.414.24-.74.573-.98 1-.227.427-.34.92-.34 1.48 0 .56.113 1.06.34 1.5.24.44.566.787.98 1.04.426.24.906.36 1.44.36Zm6.869 1.92v-9.6h2.2v9.6h-2.2Zm2.2-5.34-.76-.38c0-1.213.267-2.193.8-2.94.547-.76 1.367-1.14 2.46-1.14.48 0 .914.087 1.3.26.387.173.747.453 1.08.84l-1.44 1.48c-.173-.187-.366-.32-.58-.4-.213-.08-.46-.12-.74-.12-.613 0-1.12.193-1.52.58-.4.387-.6.993-.6 1.82Zm12.045 5.34-4.06-4.9 4.04-4.7h2.62l-4.64 5.28.1-1.26 4.74 5.58h-2.8Zm-6.1 0v-14.4h2.2V459h-2.2Zm15.539 0v-10.86c0-.733.16-1.38.48-1.94.333-.56.786-1 1.36-1.32.586-.32 1.26-.48 2.02-.48.586 0 1.086.1 1.5.3.413.2.8.487 1.16.86l-1.42 1.42c-.16-.16-.334-.287-.52-.38-.187-.093-.427-.14-.72-.14-.534 0-.947.147-1.24.44-.28.28-.42.687-.42 1.22V459h-2.2Zm-2.3-7.6v-2h7.4v2h-7.4Zm12.958 7.8c-.934 0-1.78-.22-2.54-.66-.76-.453-1.367-1.06-1.82-1.82-.44-.76-.66-1.607-.66-2.54s.22-1.773.66-2.52c.453-.747 1.06-1.34 1.82-1.78.76-.453 1.606-.68 2.54-.68.946 0 1.8.22 2.56.66.76.44 1.36 1.04 1.8 1.8.453.747.68 1.587.68 2.52s-.227 1.78-.68 2.54c-.44.76-1.04 1.367-1.8 1.82-.76.44-1.614.66-2.56.66Zm0-2.12c.546 0 1.026-.12 1.44-.36.426-.253.753-.6.98-1.04.24-.44.36-.94.36-1.5s-.12-1.053-.36-1.48c-.24-.427-.567-.76-.98-1-.414-.253-.894-.38-1.44-.38-.534 0-1.014.127-1.44.38-.414.24-.74.573-.98 1-.227.427-.34.92-.34 1.48 0 .56.113 1.06.34 1.5.24.44.566.787.98 1.04.426.24.906.36 1.44.36Zm6.869 1.92v-9.6h2.2v9.6h-2.2Zm2.2-5.34-.76-.38c0-1.213.267-2.193.8-2.94.547-.76 1.367-1.14 2.46-1.14.48 0 .913.087 1.3.26.387.173.747.453 1.08.84l-1.44 1.48c-.173-.187-.367-.32-.58-.4-.213-.08-.46-.12-.74-.12-.613 0-1.12.193-1.52.58-.4.387-.6.993-.6 1.82Zm14.5 5.54c-1.107 0-2.047-.2-2.82-.6-.773-.4-1.467-.987-2.08-1.76l1.56-1.56c.387.56.847 1 1.38 1.32.533.307 1.213.46 2.04.46.773 0 1.387-.16 1.84-.48.467-.32.7-.76.7-1.32 0-.467-.12-.847-.36-1.14-.24-.293-.56-.533-.96-.72-.387-.2-.82-.373-1.3-.52-.467-.16-.94-.333-1.42-.52-.467-.2-.9-.447-1.3-.74-.387-.293-.7-.673-.94-1.14-.24-.467-.36-1.06-.36-1.78 0-.827.2-1.527.6-2.1.413-.587.967-1.033 1.66-1.34.693-.307 1.467-.46 2.32-.46.92 0 1.74.18 2.46.54.733.36 1.327.82 1.78 1.38l-1.56 1.56c-.4-.453-.82-.787-1.26-1-.427-.227-.92-.34-1.48-.34-.693 0-1.24.14-1.64.42-.387.28-.58.673-.58 1.18 0 .427.12.773.36 1.04.24.253.553.473.94.66.4.173.833.34 1.3.5.48.16.953.34 1.42.54.48.2.913.46 1.3.78.4.307.72.707.96 1.2s.36 1.113.36 1.86c0 1.253-.447 2.247-1.34 2.98-.88.733-2.073 1.1-3.58 1.1Zm11.216 0c-.946 0-1.806-.22-2.58-.66-.76-.44-1.36-1.04-1.8-1.8-.44-.76-.66-1.607-.66-2.54 0-.947.22-1.793.66-2.54.44-.76 1.04-1.36 1.8-1.8.774-.44 1.634-.66 2.58-.66.747 0 1.44.147 2.08.44.654.28 1.207.687 1.66 1.22l-1.44 1.46c-.28-.333-.62-.58-1.02-.74-.386-.173-.813-.26-1.28-.26-.546 0-1.033.127-1.46.38-.413.24-.74.573-.98 1-.226.427-.34.927-.34 1.5 0 .56.114 1.06.34 1.5.24.427.567.767.98 1.02.427.24.914.36 1.46.36.467 0 .894-.08 1.28-.24.4-.173.74-.427 1.02-.76l1.44 1.46c-.453.533-1.006.947-1.66 1.24-.64.28-1.333.42-2.08.42Zm9.151 0c-.867 0-1.653-.22-2.36-.66-.693-.44-1.247-1.033-1.66-1.78-.4-.76-.6-1.607-.6-2.54 0-.947.2-1.793.6-2.54.413-.76.967-1.36 1.66-1.8.707-.453 1.493-.68 2.36-.68.733 0 1.38.16 1.94.48.573.307 1.027.733 1.36 1.28.333.547.5 1.167.5 1.86v2.76c0 .693-.167 1.313-.5 1.86-.32.547-.767.98-1.34 1.3-.573.307-1.227.46-1.96.46Zm.36-2.08c.813 0 1.467-.273 1.96-.82.507-.547.76-1.247.76-2.1 0-.573-.113-1.08-.34-1.52-.227-.44-.547-.78-.96-1.02-.4-.253-.873-.38-1.42-.38-.533 0-1.007.127-1.42.38-.4.24-.72.58-.96 1.02-.227.44-.34.947-.34 1.52 0 .573.113 1.08.34 1.52.24.44.56.787.96 1.04.413.24.887.36 1.42.36Zm2.58 1.88v-2.58l.38-2.34-.38-2.32v-2.36h2.2v9.6h-2.2Zm4.642 0v-14.4h2.2V459h-2.2Zm8.668.2c-.867 0-1.653-.22-2.36-.66-.693-.44-1.247-1.033-1.66-1.78-.4-.76-.6-1.607-.6-2.54 0-.947.2-1.793.6-2.54.413-.76.967-1.36 1.66-1.8.707-.453 1.493-.68 2.36-.68.733 0 1.38.16 1.94.48.573.307 1.027.733 1.36 1.28.333.547.5 1.167.5 1.86v2.76c0 .693-.167 1.313-.5 1.86-.32.547-.767.98-1.34 1.3-.573.307-1.227.46-1.96.46Zm.36-2.08c.813 0 1.467-.273 1.96-.82.507-.547.76-1.247.76-2.1 0-.573-.113-1.08-.34-1.52-.227-.44-.547-.78-.96-1.02-.4-.253-.873-.38-1.42-.38-.533 0-1.007.127-1.42.38-.4.24-.72.58-.96 1.02-.227.44-.34.947-.34 1.52 0 .573.113 1.08.34 1.52.24.44.56.787.96 1.04.413.24.887.36 1.42.36Zm2.58 1.88v-2.58l.38-2.34-.38-2.32v-2.36h2.2v9.6h-2.2Zm9.782.2c-.734 0-1.387-.153-1.96-.46-.574-.32-1.027-.753-1.36-1.3-.32-.547-.48-1.167-.48-1.86v-2.76c0-.693.166-1.313.5-1.86.333-.547.786-.973 1.36-1.28.573-.32 1.22-.48 1.94-.48.866 0 1.646.227 2.34.68.706.44 1.26 1.04 1.66 1.8.413.747.62 1.593.62 2.54 0 .933-.207 1.78-.62 2.54-.4.747-.954 1.34-1.66 1.78-.694.44-1.474.66-2.34.66Zm-.36-2.08c.533 0 1-.12 1.4-.36.413-.253.733-.6.96-1.04.24-.44.36-.947.36-1.52 0-.573-.12-1.08-.36-1.52-.227-.44-.547-.78-.96-1.02-.4-.253-.867-.38-1.4-.38-.534 0-1.007.127-1.42.38-.414.24-.734.58-.96 1.02-.227.44-.34.947-.34 1.52 0 .573.113 1.08.34 1.52.226.44.546.787.96 1.04.413.24.886.36 1.42.36Zm-4.78 1.88v-14.4h2.2v7.16l-.38 2.32.38 2.34V459h-2.2Zm11.601 0v-14.4h2.2V459h-2.2Zm9.109.2c-.96 0-1.827-.213-2.6-.64-.76-.44-1.367-1.04-1.82-1.8-.44-.76-.66-1.613-.66-2.56 0-.947.22-1.793.66-2.54.44-.76 1.033-1.36 1.78-1.8.76-.44 1.6-.66 2.52-.66.893 0 1.68.207 2.36.62.693.413 1.233.98 1.62 1.7.4.72.6 1.54.6 2.46 0 .16-.014.327-.04.5-.014.16-.04.34-.08.54h-7.88v-1.8h6.74l-.82.72c-.027-.587-.14-1.08-.34-1.48-.2-.4-.487-.707-.86-.92-.36-.213-.807-.32-1.34-.32-.56 0-1.047.12-1.46.36-.414.24-.734.58-.96 1.02-.227.427-.34.94-.34 1.54 0 .6.12 1.127.36 1.58.24.453.58.807 1.02 1.06.44.24.946.36 1.52.36.493 0 .946-.087 1.36-.26.426-.173.786-.427 1.08-.76l1.4 1.42c-.467.547-1.034.96-1.7 1.24-.667.28-1.374.42-2.12.42Zm16.887 0c-1.013 0-1.953-.18-2.82-.54-.853-.373-1.6-.887-2.24-1.54-.64-.667-1.133-1.433-1.48-2.3-.347-.88-.52-1.82-.52-2.82 0-1 .173-1.933.52-2.8.347-.88.84-1.647 1.48-2.3.64-.653 1.387-1.167 2.24-1.54.867-.373 1.807-.56 2.82-.56 1.133 0 2.113.187 2.94.56.827.373 1.56.88 2.2 1.52l-1.56 1.56c-.413-.453-.92-.807-1.52-1.06-.587-.253-1.273-.38-2.06-.38-.693 0-1.327.12-1.9.36s-1.073.587-1.5 1.04c-.413.44-.733.967-.96 1.58-.227.613-.34 1.287-.34 2.02 0 .733.113 1.407.34 2.02.227.613.547 1.147.96 1.6.427.44.927.78 1.5 1.02s1.207.36 1.9.36c.853 0 1.573-.127 2.16-.38.6-.267 1.107-.627 1.52-1.08l1.56 1.56c-.64.653-1.393 1.167-2.26 1.54-.867.373-1.86.56-2.98.56Zm11.099 0c-.933 0-1.78-.22-2.54-.66-.76-.453-1.366-1.06-1.82-1.82-.44-.76-.66-1.607-.66-2.54s.22-1.773.66-2.52c.454-.747 1.06-1.34 1.82-1.78.76-.453 1.607-.68 2.54-.68.947 0 1.8.22 2.56.66.76.44 1.36 1.04 1.8 1.8.454.747.68 1.587.68 2.52s-.226 1.78-.68 2.54c-.44.76-1.04 1.367-1.8 1.82-.76.44-1.613.66-2.56.66Zm0-2.12c.547 0 1.027-.12 1.44-.36.427-.253.754-.6.98-1.04.24-.44.36-.94.36-1.5s-.12-1.053-.36-1.48c-.24-.427-.566-.76-.98-1-.413-.253-.893-.38-1.44-.38-.533 0-1.013.127-1.44.38-.413.24-.74.573-.98 1-.226.427-.34.92-.34 1.48 0 .56.114 1.06.34 1.5.24.44.567.787.98 1.04.427.24.907.36 1.44.36Zm6.87 1.92v-9.6h2.2v9.6h-2.2Zm6.38 0v-5.72c0-.64-.2-1.133-.6-1.48-.4-.36-.893-.54-1.48-.54-.4 0-.76.08-1.08.24-.307.16-.553.393-.74.7-.187.293-.28.653-.28 1.08l-.86-.48c0-.733.16-1.367.48-1.9.32-.533.753-.947 1.3-1.24.547-.307 1.16-.46 1.84-.46.68 0 1.293.147 1.84.44.547.293.98.707 1.3 1.24.32.533.48 1.173.48 1.92v6.2h-2.2Zm6.38 0v-5.72c0-.64-.2-1.133-.6-1.48-.4-.36-.893-.54-1.48-.54-.387 0-.74.08-1.06.24-.32.16-.573.393-.76.7-.187.293-.28.653-.28 1.08l-1.24-.48c.067-.733.28-1.367.64-1.9.36-.533.82-.947 1.38-1.24.573-.307 1.2-.46 1.88-.46.693 0 1.32.147 1.88.44.56.293 1.007.707 1.34 1.24.333.533.5 1.173.5 1.92v6.2h-2.2Zm9.607.2c-.734 0-1.387-.153-1.96-.46-.574-.32-1.027-.753-1.36-1.3-.32-.547-.48-1.167-.48-1.86v-2.76c0-.693.166-1.313.5-1.86.333-.547.786-.973 1.36-1.28.573-.32 1.22-.48 1.94-.48.866 0 1.646.227 2.34.68.706.44 1.26 1.04 1.66 1.8.413.747.62 1.593.62 2.54 0 .933-.207 1.78-.62 2.54-.4.747-.954 1.34-1.66 1.78-.694.44-1.474.66-2.34.66Zm-.36-2.08c.533 0 1-.12 1.4-.36.413-.253.733-.6.96-1.04.24-.44.36-.947.36-1.52 0-.573-.12-1.08-.36-1.52-.227-.44-.547-.78-.96-1.02-.4-.253-.867-.38-1.4-.38-.534 0-1.007.127-1.42.38-.414.24-.734.58-.96 1.02-.227.44-.34.947-.34 1.52 0 .573.113 1.08.34 1.52.226.44.546.787.96 1.04.413.24.886.36 1.42.36Zm-4.78 5.88v-13.6h2.2v2.58l-.38 2.34.38 2.32V463h-2.2Zm15.541-3.8c-.813 0-1.54-.18-2.18-.54-.627-.36-1.12-.853-1.48-1.48-.347-.64-.52-1.373-.52-2.2v-5.58h2.2v5.48c0 .467.073.867.22 1.2.16.32.387.567.68.74.307.173.667.26 1.08.26.64 0 1.127-.187 1.46-.56.347-.387.52-.933.52-1.64v-5.48h2.2v5.58c0 .84-.18 1.58-.54 2.22-.347.627-.833 1.12-1.46 1.48-.627.347-1.353.52-2.18.52Zm7.852-.2v-13.6h2.2V459h-2.2Zm-2.3-7.6v-2h6.8v2h-6.8Zm8.419 7.6v-9.6h2.2v9.6h-2.2Zm1.1-11.36c-.374 0-.687-.127-.94-.38-.24-.253-.36-.567-.36-.94s.12-.687.36-.94c.253-.253.566-.38.94-.38.386 0 .7.127.94.38s.36.567.36.94-.12.687-.36.94c-.24.253-.554.38-.94.38ZM568.935 459v-5.54c0-.64-.206-1.167-.62-1.58-.4-.413-.92-.62-1.56-.62-.426 0-.806.093-1.14.28-.333.187-.593.447-.78.78-.186.333-.28.713-.28 1.14l-.86-.48c0-.733.16-1.38.48-1.94.32-.573.76-1.02 1.32-1.34.574-.333 1.214-.5 1.92-.5.72 0 1.36.187 1.92.56.56.36 1 .833 1.32 1.42.32.573.48 1.173.48 1.8V459h-2.2Zm-6.58 0v-9.6h2.2v9.6h-2.2Zm15.016 4.2c-1.013 0-1.9-.187-2.66-.56-.76-.36-1.373-.873-1.84-1.54l1.44-1.44c.387.48.827.84 1.32 1.08.493.24 1.087.36 1.78.36.867 0 1.553-.227 2.06-.68.507-.44.76-1.047.76-1.82v-2.36l.38-2.12-.38-2.14v-2.58h2.2v9.2c0 .92-.213 1.72-.64 2.4-.427.693-1.02 1.233-1.78 1.62s-1.64.58-2.64.58Zm-.1-4.4c-.853 0-1.627-.207-2.32-.62-.68-.427-1.22-1.007-1.62-1.74-.387-.733-.58-1.553-.58-2.46s.193-1.72.58-2.44c.4-.72.94-1.287 1.62-1.7.693-.427 1.467-.64 2.32-.64.76 0 1.427.153 2 .46.573.307 1.02.733 1.34 1.28.32.533.48 1.16.48 1.88v2.36c0 .707-.167 1.333-.5 1.88-.32.547-.767.973-1.34 1.28-.573.307-1.233.46-1.98.46Zm.44-2.08c.533 0 1-.113 1.4-.34.4-.227.707-.54.92-.94.227-.413.34-.893.34-1.44 0-.547-.113-1.02-.34-1.42-.213-.413-.52-.733-.92-.96-.4-.227-.867-.34-1.4-.34-.533 0-1.007.113-1.42.34-.4.227-.713.547-.94.96-.227.4-.34.873-.34 1.42 0 .533.113 1.007.34 1.42.227.413.54.733.94.96.413.227.887.34 1.42.34Z" fill="#fff"/>
  <rect x="32" y="518" width="184" height="80" rx="5" fill="#143566"/>
  <path d="M48.6938 565v-14h1.6l5.82 9.58h-1.04l5.82-9.58h1.6v14h-2.3v-9.96l.52.14-4.32 7.1h-1.6l-4.32-7.1.52-.14V565h-2.3Zm20.556.2c-.8667 0-1.6534-.22-2.36-.66-.6934-.44-1.2467-1.033-1.66-1.78-.4-.76-.6-1.607-.6-2.54 0-.947.2-1.793.6-2.54.4133-.76.9666-1.36 1.66-1.8.7066-.453 1.4933-.68 2.36-.68.7333 0 1.38.16 1.94.48.5733.307 1.0266.733 1.36 1.28.3333.547.5 1.167.5 1.86v2.76c0 .693-.1667 1.313-.5 1.86-.32.547-.7667.98-1.34 1.3-.5734.307-1.2267.46-1.96.46Zm.36-2.08c.8133 0 1.4666-.273 1.96-.82.5066-.547.76-1.247.76-2.1 0-.573-.1134-1.08-.34-1.52-.2267-.44-.5467-.78-.96-1.02-.4-.253-.8734-.38-1.42-.38-.5334 0-1.0067.127-1.42.38-.4.24-.72.58-.96 1.02-.2267.44-.34.947-.34 1.52 0 .573.1133 1.08.34 1.52.24.44.56.787.96 1.04.4133.24.8866.36 1.42.36Zm2.58 1.88v-2.58l.38-2.34-.38-2.32v-2.36h2.2v9.6h-2.2Zm11.2215 0v-5.54c0-.64-.2066-1.167-.62-1.58-.4-.413-.92-.62-1.56-.62-.4266 0-.8066.093-1.14.28-.3333.187-.5933.447-.78.78-.1866.333-.28.713-.28 1.14l-.86-.48c0-.733.16-1.38.48-1.94.32-.573.76-1.02 1.32-1.34.5734-.333 1.2134-.5 1.92-.5.72 0 1.36.187 1.92.56.56.36 1 .833 1.32 1.42.32.573.48 1.173.48 1.8V565h-2.2Zm-6.58 0v-9.6h2.2v9.6h-2.2Zm15.0357.2c-.8667 0-1.6534-.22-2.36-.66-.6934-.44-1.2467-1.033-1.66-1.78-.4-.76-.6-1.607-.6-2.54 0-.947.2-1.793.6-2.54.4133-.76.9666-1.36 1.66-1.8.7066-.453 1.4933-.68 2.36-.68.7333 0 1.38.16 1.94.48.5733.307 1.0266.733 1.36 1.28.3333.547.5 1.167.5 1.86v2.76c0 .693-.1667 1.313-.5 1.86-.32.547-.7667.98-1.34 1.3-.5734.307-1.2267.46-1.96.46Zm.36-2.08c.8133 0 1.4666-.273 1.96-.82.5066-.547.76-1.247.76-2.1 0-.573-.1134-1.08-.34-1.52-.2267-.44-.5467-.78-.96-1.02-.4-.253-.8734-.38-1.42-.38-.5334 0-1.0067.127-1.42.38-.4.24-.72.58-.96 1.02-.2267.44-.34.947-.34 1.52 0 .573.1133 1.08.34 1.52.24.44.56.787.96 1.04.4133.24.8866.36 1.42.36Zm2.58 1.88v-2.58l.38-2.34-.38-2.32v-2.36h2.2v9.6h-2.2Zm8.642 4.2c-1.014 0-1.9-.187-2.66-.56-.76-.36-1.3738-.873-1.8405-1.54l1.4405-1.44c.386.48.826.84 1.32 1.08.493.24 1.086.36 1.78.36.866 0 1.553-.227 2.06-.68.506-.44.76-1.047.76-1.82v-2.36l.38-2.12-.38-2.14v-2.58h2.2v9.2c0 .92-.214 1.72-.64 2.4-.427.693-1.02 1.233-1.78 1.62s-1.64.58-2.64.58Zm-.1-4.4c-.854 0-1.627-.207-2.32-.62-.68-.427-1.2205-1.007-1.6205-1.74-.3867-.733-.58-1.553-.58-2.46s.1933-1.72.58-2.44c.4-.72.9405-1.287 1.6205-1.7.693-.427 1.466-.64 2.32-.64.76 0 1.426.153 2 .46.573.307 1.02.733 1.34 1.28.32.533.48 1.16.48 1.88v2.36c0 .707-.167 1.333-.5 1.88-.32.547-.767.973-1.34 1.28-.574.307-1.234.46-1.98.46Zm.44-2.08c.533 0 1-.113 1.4-.34.4-.227.706-.54.92-.94.226-.413.34-.893.34-1.44 0-.547-.114-1.02-.34-1.42-.214-.413-.52-.733-.92-.96-.4-.227-.867-.34-1.4-.34-.534 0-1.007.113-1.42.34-.4.227-.714.547-.94.96-.227.4-.34.873-.34 1.42 0 .533.113 1.007.34 1.42.226.413.54.733.94.96.413.227.886.34 1.42.34Zm11.623 2.48c-.96 0-1.826-.213-2.6-.64-.76-.44-1.366-1.04-1.82-1.8-.44-.76-.66-1.613-.66-2.56 0-.947.22-1.793.66-2.54.44-.76 1.034-1.36 1.78-1.8.76-.44 1.6-.66 2.52-.66.894 0 1.68.207 2.36.62.694.413 1.234.98 1.62 1.7.4.72.6 1.54.6 2.46 0 .16-.013.327-.04.5-.013.16-.04.34-.08.54h-7.88v-1.8h6.74l-.82.72c-.026-.587-.14-1.08-.34-1.48-.2-.4-.486-.707-.86-.92-.36-.213-.806-.32-1.34-.32-.56 0-1.046.12-1.46.36-.413.24-.733.58-.96 1.02-.226.427-.34.94-.34 1.54 0 .6.12 1.127.36 1.58.24.453.58.807 1.02 1.06.44.24.947.36 1.52.36.494 0 .947-.087 1.36-.26.427-.173.787-.427 1.08-.76l1.4 1.42c-.466.547-1.033.96-1.7 1.24-.666.28-1.373.42-2.12.42Zm10.244 0c-.867 0-1.653-.22-2.36-.66-.693-.44-1.247-1.033-1.66-1.78-.4-.76-.6-1.607-.6-2.54 0-.947.2-1.793.6-2.54.413-.76.967-1.36 1.66-1.8.707-.453 1.493-.68 2.36-.68.733 0 1.38.16 1.94.48.573.307 1.027.733 1.36 1.28.333.547.5 1.167.5 1.86v2.76c0 .693-.167 1.313-.5 1.86-.32.547-.767.98-1.34 1.3-.573.307-1.227.46-1.96.46Zm.36-2.08c.547 0 1.02-.12 1.42-.36.413-.253.733-.6.96-1.04.227-.44.34-.947.34-1.52 0-.573-.113-1.08-.34-1.52-.227-.44-.547-.78-.96-1.02-.4-.253-.873-.38-1.42-.38-.533 0-1.007.127-1.42.38-.4.24-.72.58-.96 1.02-.227.44-.34.947-.34 1.52 0 .573.113 1.08.34 1.52.24.44.56.787.96 1.04.413.24.887.36 1.42.36Zm4.78 1.88h-2.2v-2.58l.38-2.34-.38-2.32v-7.16h2.2V565Zm10.645.2c-1.106 0-2.046-.2-2.82-.6-.773-.4-1.466-.987-2.08-1.76l1.56-1.56c.387.56.847 1 1.38 1.32.534.307 1.214.46 2.04.46.774 0 1.387-.16 1.84-.48.467-.32.7-.76.7-1.32 0-.467-.12-.847-.36-1.14-.24-.293-.56-.533-.96-.72-.386-.2-.82-.373-1.3-.52-.466-.16-.94-.333-1.42-.52-.466-.2-.9-.447-1.3-.74-.386-.293-.7-.673-.94-1.14-.24-.467-.36-1.06-.36-1.78 0-.827.2-1.527.6-2.1.414-.587.967-1.033 1.66-1.34.694-.307 1.467-.46 2.32-.46.92 0 1.74.18 2.46.54.734.36 1.327.82 1.78 1.38l-1.56 1.56c-.4-.453-.82-.787-1.26-1-.426-.227-.92-.34-1.48-.34-.693 0-1.24.14-1.64.42-.386.28-.58.673-.58 1.18 0 .427.12.773.36 1.04.24.253.554.473.94.66.4.173.834.34 1.3.5.48.16.954.34 1.42.54.48.2.914.46 1.3.78.4.307.72.707.96 1.2s.36 1.113.36 1.86c0 1.253-.446 2.247-1.34 2.98-.88.733-2.073 1.1-3.58 1.1Zm11.257 0c-.96 0-1.827-.213-2.6-.64-.76-.44-1.367-1.04-1.82-1.8-.44-.76-.66-1.613-.66-2.56 0-.947.22-1.793.66-2.54.44-.76 1.033-1.36 1.78-1.8.76-.44 1.6-.66 2.52-.66.893 0 1.68.207 2.36.62.693.413 1.233.98 1.62 1.7.4.72.6 1.54.6 2.46 0 .16-.014.327-.04.5-.014.16-.04.34-.08.54h-7.88v-1.8h6.74l-.82.72c-.027-.587-.14-1.08-.34-1.48-.2-.4-.487-.707-.86-.92-.36-.213-.807-.32-1.34-.32-.56 0-1.047.12-1.46.36-.414.24-.734.58-.96 1.02-.227.427-.34.94-.34 1.54 0 .6.12 1.127.36 1.58.24.453.58.807 1.02 1.06.44.24.946.36 1.52.36.493 0 .946-.087 1.36-.26.426-.173.786-.427 1.08-.76l1.4 1.42c-.467.547-1.034.96-1.7 1.24-.667.28-1.374.42-2.12.42Zm6.223-.2v-9.6h2.2v9.6h-2.2Zm2.2-5.34-.76-.38c0-1.213.267-2.193.8-2.94.547-.76 1.367-1.14 2.46-1.14.48 0 .914.087 1.3.26.387.173.747.453 1.08.84l-1.44 1.48c-.173-.187-.366-.32-.58-.4-.213-.08-.46-.12-.74-.12-.613 0-1.12.193-1.52.58-.4.387-.6.993-.6 1.82Zm9.048 5.34-4.38-9.6h2.44l3.34 7.82h-1.44l3.36-7.82h2.34l-4.38 9.6h-1.28Zm6.975 0v-9.6h2.2v9.6h-2.2Zm1.1-11.36c-.373 0-.686-.127-.94-.38-.24-.253-.36-.567-.36-.94s.12-.687.36-.94c.254-.253.567-.38.94-.38.387 0 .7.127.94.38s.36.567.36.94-.12.687-.36.94c-.24.253-.553.38-.94.38Zm7.988 11.56c-.947 0-1.807-.22-2.58-.66-.76-.44-1.36-1.04-1.8-1.8-.44-.76-.66-1.607-.66-2.54 0-.947.22-1.793.66-2.54.44-.76 1.04-1.36 1.8-1.8.773-.44 1.633-.66 2.58-.66.746 0 1.44.147 2.08.44.653.28 1.206.687 1.66 1.22l-1.44 1.46c-.28-.333-.62-.58-1.02-.74-.387-.173-.814-.26-1.28-.26-.547 0-1.034.127-1.46.38-.414.24-.74.573-.98 1-.227.427-.34.927-.34 1.5 0 .56.113 1.06.34 1.5.24.427.566.767.98 1.02.426.24.913.36 1.46.36.466 0 .893-.08 1.28-.24.4-.173.74-.427 1.02-.76l1.44 1.46c-.454.533-1.007.947-1.66 1.24-.64.28-1.334.42-2.08.42Zm9.591 0c-.96 0-1.827-.213-2.6-.64-.76-.44-1.367-1.04-1.82-1.8-.44-.76-.66-1.613-.66-2.56 0-.947.22-1.793.66-2.54.44-.76 1.033-1.36 1.78-1.8.76-.44 1.6-.66 2.52-.66.893 0 1.68.207 2.36.62.693.413 1.233.98 1.62 1.7.4.72.6 1.54.6 2.46 0 .16-.014.327-.04.5-.014.16-.04.34-.08.54h-7.88v-1.8h6.74l-.82.72c-.027-.587-.14-1.08-.34-1.48-.2-.4-.487-.707-.86-.92-.36-.213-.807-.32-1.34-.32-.56 0-1.047.12-1.46.36-.414.24-.734.58-.96 1.02-.227.427-.34.94-.34 1.54 0 .6.12 1.127.36 1.58.24.453.58.807 1.02 1.06.44.24.946.36 1.52.36.493 0 .946-.087 1.36-.26.426-.173.786-.427 1.08-.76l1.4 1.42c-.467.547-1.034.96-1.7 1.24-.667.28-1.374.42-2.12.42Z" fill="#fff"/>
  <rect x="232" y="518" width="184" height="80" rx="5" fill="#143566"/>
  <path d="M272.077 565.2c-1 0-1.933-.187-2.8-.56-.866-.373-1.626-.887-2.28-1.54-.653-.667-1.166-1.433-1.54-2.3-.36-.88-.54-1.82-.54-2.82 0-1 .18-1.933.54-2.8.374-.867.88-1.627 1.52-2.28.654-.667 1.407-1.18 2.26-1.54.867-.373 1.8-.56 2.8-.56 1 0 1.927.187 2.78.56.867.36 1.627.873 2.28 1.54.654.653 1.16 1.42 1.52 2.3.374.867.56 1.8.56 2.8 0 1-.186 1.94-.56 2.82-.36.867-.866 1.627-1.52 2.28-.64.653-1.393 1.167-2.26 1.54-.853.373-1.773.56-2.76.56Zm-.04-2.2c.947 0 1.774-.213 2.48-.64.72-.427 1.28-1.013 1.68-1.76.414-.76.62-1.633.62-2.62 0-.733-.12-1.4-.36-2-.226-.613-.553-1.14-.98-1.58-.426-.453-.933-.8-1.52-1.04-.573-.24-1.213-.36-1.92-.36-.933 0-1.76.213-2.48.64-.706.413-1.266.993-1.68 1.74-.4.747-.6 1.613-.6 2.6 0 .733.114 1.413.34 2.04.24.613.567 1.14.98 1.58.427.44.934.787 1.52 1.04.587.24 1.227.36 1.92.36Zm14.319 2.2c-.733 0-1.387-.153-1.96-.46-.573-.32-1.027-.753-1.36-1.3-.32-.547-.48-1.167-.48-1.86v-2.76c0-.693.167-1.313.5-1.86.333-.547.787-.973 1.36-1.28.573-.32 1.22-.48 1.94-.48.867 0 1.647.227 2.34.68.707.44 1.26 1.04 1.66 1.8.413.747.62 1.593.62 2.54 0 .933-.207 1.78-.62 2.54-.4.747-.953 1.34-1.66 1.78-.693.44-1.473.66-2.34.66Zm-.36-2.08c.533 0 1-.12 1.4-.36.413-.253.733-.6.96-1.04.24-.44.36-.947.36-1.52 0-.573-.12-1.08-.36-1.52-.227-.44-.547-.78-.96-1.02-.4-.253-.867-.38-1.4-.38-.533 0-1.007.127-1.42.38-.413.24-.733.58-.96 1.02-.227.44-.34.947-.34 1.52 0 .573.113 1.08.34 1.52.227.44.547.787.96 1.04.413.24.887.36 1.42.36Zm-4.78 1.88v-14.4h2.2v7.16l-.38 2.32.38 2.34V565h-2.2Zm14.742.2c-.534 0-1.047-.067-1.54-.2-.494-.147-.947-.347-1.36-.6-.414-.267-.774-.587-1.08-.96l1.4-1.4c.333.387.713.68 1.14.88.44.187.933.28 1.48.28.493 0 .866-.073 1.12-.22.253-.147.38-.36.38-.64 0-.293-.12-.52-.36-.68-.24-.16-.554-.293-.94-.4-.374-.12-.774-.24-1.2-.36-.414-.12-.814-.28-1.2-.48-.374-.213-.68-.5-.92-.86s-.36-.827-.36-1.4c0-.613.14-1.14.42-1.58.293-.44.7-.78 1.22-1.02.533-.24 1.166-.36 1.9-.36.773 0 1.453.14 2.04.42.6.267 1.1.673 1.5 1.22l-1.4 1.4c-.28-.347-.6-.607-.96-.78-.36-.173-.774-.26-1.24-.26-.44 0-.78.067-1.02.2s-.36.327-.36.58c0 .267.12.473.36.62.24.147.546.273.92.38.386.107.786.227 1.2.36.426.12.826.293 1.2.52.386.213.7.507.94.88.24.36.36.833.36 1.42 0 .933-.327 1.673-.98 2.22-.654.547-1.54.82-2.66.82Zm9.913 0c-.96 0-1.826-.213-2.6-.64-.76-.44-1.366-1.04-1.82-1.8-.44-.76-.66-1.613-.66-2.56 0-.947.22-1.793.66-2.54.44-.76 1.034-1.36 1.78-1.8.76-.44 1.6-.66 2.52-.66.894 0 1.68.207 2.36.62.694.413 1.234.98 1.62 1.7.4.72.6 1.54.6 2.46 0 .16-.013.327-.04.5-.013.16-.04.34-.08.54h-7.88v-1.8h6.74l-.82.72c-.026-.587-.14-1.08-.34-1.48-.2-.4-.486-.707-.86-.92-.36-.213-.806-.32-1.34-.32-.56 0-1.046.12-1.46.36-.413.24-.733.58-.96 1.02-.226.427-.34.94-.34 1.54 0 .6.12 1.127.36 1.58.24.453.58.807 1.02 1.06.44.24.947.36 1.52.36.494 0 .947-.087 1.36-.26.427-.173.787-.427 1.08-.76l1.4 1.42c-.466.547-1.033.96-1.7 1.24-.666.28-1.373.42-2.12.42Zm6.224-.2v-9.6h2.2v9.6h-2.2Zm2.2-5.34-.76-.38c0-1.213.267-2.193.8-2.94.547-.76 1.367-1.14 2.46-1.14.48 0 .913.087 1.3.26.387.173.747.453 1.08.84l-1.44 1.48c-.173-.187-.367-.32-.58-.4-.213-.08-.46-.12-.74-.12-.613 0-1.12.193-1.52.58-.4.387-.6.993-.6 1.82Zm9.048 5.34-4.38-9.6h2.44l3.34 7.82h-1.44l3.36-7.82h2.34l-4.38 9.6h-1.28Zm10.643.2c-.867 0-1.653-.22-2.36-.66-.693-.44-1.247-1.033-1.66-1.78-.4-.76-.6-1.607-.6-2.54 0-.947.2-1.793.6-2.54.413-.76.967-1.36 1.66-1.8.707-.453 1.493-.68 2.36-.68.733 0 1.38.16 1.94.48.573.307 1.027.733 1.36 1.28.333.547.5 1.167.5 1.86v2.76c0 .693-.167 1.313-.5 1.86-.32.547-.767.98-1.34 1.3-.573.307-1.227.46-1.96.46Zm.36-2.08c.813 0 1.467-.273 1.96-.82.507-.547.76-1.247.76-2.1 0-.573-.113-1.08-.34-1.52-.227-.44-.547-.78-.96-1.02-.4-.253-.873-.38-1.42-.38-.533 0-1.007.127-1.42.38-.4.24-.72.58-.96 1.02-.227.44-.34.947-.34 1.52 0 .573.113 1.08.34 1.52.24.44.56.787.96 1.04.413.24.887.36 1.42.36Zm2.58 1.88v-2.58l.38-2.34-.38-2.32v-2.36h2.2v9.6h-2.2Zm9.782.2c-.734 0-1.387-.153-1.96-.46-.574-.32-1.027-.753-1.36-1.3-.32-.547-.48-1.167-.48-1.86v-2.76c0-.693.166-1.313.5-1.86.333-.547.786-.973 1.36-1.28.573-.32 1.22-.48 1.94-.48.866 0 1.646.227 2.34.68.706.44 1.26 1.04 1.66 1.8.413.747.62 1.593.62 2.54 0 .933-.207 1.78-.62 2.54-.4.747-.954 1.34-1.66 1.78-.694.44-1.474.66-2.34.66Zm-.36-2.08c.533 0 1-.12 1.4-.36.413-.253.733-.6.96-1.04.24-.44.36-.947.36-1.52 0-.573-.12-1.08-.36-1.52-.227-.44-.547-.78-.96-1.02-.4-.253-.867-.38-1.4-.38-.534 0-1.007.127-1.42.38-.414.24-.734.58-.96 1.02-.227.44-.34.947-.34 1.52 0 .573.113 1.08.34 1.52.226.44.546.787.96 1.04.413.24.886.36 1.42.36Zm-4.78 1.88v-14.4h2.2v7.16l-.38 2.32.38 2.34V565h-2.2Zm11.621 0v-9.6h2.2v9.6h-2.2Zm1.1-11.36c-.373 0-.686-.127-.94-.38-.24-.253-.36-.567-.36-.94s.12-.687.36-.94c.254-.253.567-.38.94-.38.387 0 .7.127.94.38s.36.567.36.94-.12.687-.36.94c-.24.253-.553.38-.94.38Zm3.568 11.36v-14.4h2.2V565h-2.2Zm4.668 0v-9.6h2.2v9.6h-2.2Zm1.1-11.36c-.373 0-.687-.127-.94-.38-.24-.253-.36-.567-.36-.94s.12-.687.36-.94c.253-.253.567-.38.94-.38.387 0 .7.127.94.38s.36.567.36.94-.12.687-.36.94c-.24.253-.553.38-.94.38Zm5.028 11.36v-13.6h2.2V565h-2.2Zm-2.3-7.6v-2h6.8v2h-6.8Zm11.498 7.7-4.1-9.7h2.42l2.8 7.12h-.7l2.96-7.12h2.44l-4.46 9.7h-1.36Zm-2.86 3.9 2.98-6.14 1.24 2.24-1.78 3.9h-2.44Z" fill="#fff"/>
  <rect x="432" y="518" width="184" height="80" rx="5" fill="#143566"/>
  <path d="m458.826 565 5.76-14h1.6l5.72 14h-2.48l-4.48-11.34h.84l-4.52 11.34h-2.44Zm2.84-2.7v-2h7.42v2h-7.42Zm15.796 2.9c-.946 0-1.806-.22-2.58-.66-.76-.44-1.36-1.04-1.8-1.8-.44-.76-.66-1.607-.66-2.54 0-.947.22-1.793.66-2.54.44-.76 1.04-1.36 1.8-1.8.774-.44 1.634-.66 2.58-.66.747 0 1.44.147 2.08.44.654.28 1.207.687 1.66 1.22l-1.44 1.46c-.28-.333-.62-.58-1.02-.74-.386-.173-.813-.26-1.28-.26-.546 0-1.033.127-1.46.38-.413.24-.74.573-.98 1-.226.427-.34.927-.34 1.5 0 .56.114 1.06.34 1.5.24.427.567.767.98 1.02.427.24.914.36 1.46.36.467 0 .894-.08 1.28-.24.4-.173.74-.427 1.02-.76l1.44 1.46c-.453.533-1.006.947-1.66 1.24-.64.28-1.333.42-2.08.42Zm9.551 0c-.947 0-1.807-.22-2.58-.66-.76-.44-1.36-1.04-1.8-1.8-.44-.76-.66-1.607-.66-2.54 0-.947.22-1.793.66-2.54.44-.76 1.04-1.36 1.8-1.8.773-.44 1.633-.66 2.58-.66.747 0 1.44.147 2.08.44.653.28 1.207.687 1.66 1.22l-1.44 1.46c-.28-.333-.62-.58-1.02-.74-.387-.173-.813-.26-1.28-.26-.547 0-1.033.127-1.46.38-.413.24-.74.573-.98 1-.227.427-.34.927-.34 1.5 0 .56.113 1.06.34 1.5.24.427.567.767.98 1.02.427.24.913.36 1.46.36.467 0 .893-.08 1.28-.24.4-.173.74-.427 1.02-.76l1.44 1.46c-.453.533-1.007.947-1.66 1.24-.64.28-1.333.42-2.08.42Zm9.591 0c-.96 0-1.827-.213-2.6-.64-.76-.44-1.367-1.04-1.82-1.8-.44-.76-.66-1.613-.66-2.56 0-.947.22-1.793.66-2.54.44-.76 1.033-1.36 1.78-1.8.76-.44 1.6-.66 2.52-.66.893 0 1.68.207 2.36.62.693.413 1.233.98 1.62 1.7.4.72.6 1.54.6 2.46 0 .16-.014.327-.04.5-.014.16-.04.34-.08.54h-7.88v-1.8h6.74l-.82.72c-.027-.587-.14-1.08-.34-1.48-.2-.4-.487-.707-.86-.92-.36-.213-.807-.32-1.34-.32-.56 0-1.047.12-1.46.36-.414.24-.734.58-.96 1.02-.227.427-.34.94-.34 1.54 0 .6.12 1.127.36 1.58.24.453.58.807 1.02 1.06.44.24.946.36 1.52.36.493 0 .946-.087 1.36-.26.426-.173.786-.427 1.08-.76l1.4 1.42c-.467.547-1.034.96-1.7 1.24-.667.28-1.374.42-2.12.42Zm9.363 0c-.533 0-1.046-.067-1.54-.2-.493-.147-.946-.347-1.36-.6-.413-.267-.773-.587-1.08-.96l1.4-1.4c.334.387.714.68 1.14.88.44.187.934.28 1.48.28.494 0 .867-.073 1.12-.22.254-.147.38-.36.38-.64 0-.293-.12-.52-.36-.68-.24-.16-.553-.293-.94-.4-.373-.12-.773-.24-1.2-.36-.413-.12-.813-.28-1.2-.48-.373-.213-.68-.5-.92-.86s-.36-.827-.36-1.4c0-.613.14-1.14.42-1.58.294-.44.7-.78 1.22-1.02.534-.24 1.167-.36 1.9-.36.774 0 1.454.14 2.04.42.6.267 1.1.673 1.5 1.22l-1.4 1.4c-.28-.347-.6-.607-.96-.78-.36-.173-.773-.26-1.24-.26-.44 0-.78.067-1.02.2s-.36.327-.36.58c0 .267.12.473.36.62.24.147.547.273.92.38.387.107.787.227 1.2.36.427.12.827.293 1.2.52.387.213.7.507.94.88.24.36.36.833.36 1.42 0 .933-.326 1.673-.98 2.22-.653.547-1.54.82-2.66.82Zm8.594 0c-.533 0-1.046-.067-1.54-.2-.493-.147-.946-.347-1.36-.6-.413-.267-.773-.587-1.08-.96l1.4-1.4c.334.387.714.68 1.14.88.44.187.934.28 1.48.28.494 0 .867-.073 1.12-.22.254-.147.38-.36.38-.64 0-.293-.12-.52-.36-.68-.24-.16-.553-.293-.94-.4-.373-.12-.773-.24-1.2-.36-.413-.12-.813-.28-1.2-.48-.373-.213-.68-.5-.92-.86s-.36-.827-.36-1.4c0-.613.14-1.14.42-1.58.294-.44.7-.78 1.22-1.02.534-.24 1.167-.36 1.9-.36.774 0 1.454.14 2.04.42.6.267 1.1.673 1.5 1.22l-1.4 1.4c-.28-.347-.6-.607-.96-.78-.36-.173-.773-.26-1.24-.26-.44 0-.78.067-1.02.2s-.36.327-.36.58c0 .267.12.473.36.62.24.147.547.273.92.38.387.107.787.227 1.2.36.427.12.827.293 1.2.52.387.213.7.507.94.88.24.36.36.833.36 1.42 0 .933-.326 1.673-.98 2.22-.653.547-1.54.82-2.66.82Zm16.118 0c-1.014 0-1.954-.18-2.82-.54-.854-.373-1.6-.887-2.24-1.54-.64-.667-1.134-1.433-1.48-2.3-.347-.88-.52-1.82-.52-2.82 0-1 .173-1.933.52-2.8.346-.88.84-1.647 1.48-2.3.64-.653 1.386-1.167 2.24-1.54.866-.373 1.806-.56 2.82-.56 1.133 0 2.113.187 2.94.56.826.373 1.56.88 2.2 1.52l-1.56 1.56c-.414-.453-.92-.807-1.52-1.06-.587-.253-1.274-.38-2.06-.38-.694 0-1.327.12-1.9.36-.574.24-1.074.587-1.5 1.04-.414.44-.734.967-.96 1.58-.227.613-.34 1.287-.34 2.02 0 .733.113 1.407.34 2.02.226.613.546 1.147.96 1.6.426.44.926.78 1.5 1.02.573.24 1.206.36 1.9.36.853 0 1.573-.127 2.16-.38.6-.267 1.106-.627 1.52-1.08l1.56 1.56c-.64.653-1.394 1.167-2.26 1.54-.867.373-1.86.56-2.98.56Zm11.099 0c-.933 0-1.78-.22-2.54-.66-.76-.453-1.366-1.06-1.82-1.82-.44-.76-.66-1.607-.66-2.54s.22-1.773.66-2.52c.454-.747 1.06-1.34 1.82-1.78.76-.453 1.607-.68 2.54-.68.947 0 1.8.22 2.56.66.76.44 1.36 1.04 1.8 1.8.454.747.68 1.587.68 2.52s-.226 1.78-.68 2.54c-.44.76-1.04 1.367-1.8 1.82-.76.44-1.613.66-2.56.66Zm0-2.12c.547 0 1.027-.12 1.44-.36.427-.253.754-.6.98-1.04.24-.44.36-.94.36-1.5s-.12-1.053-.36-1.48c-.24-.427-.566-.76-.98-1-.413-.253-.893-.38-1.44-.38-.533 0-1.013.127-1.44.38-.413.24-.74.573-.98 1-.226.427-.34.92-.34 1.48 0 .56.114 1.06.34 1.5.24.44.567.787.98 1.04.427.24.907.36 1.44.36Zm13.45 1.92v-5.54c0-.64-.207-1.167-.62-1.58-.4-.413-.92-.62-1.56-.62-.427 0-.807.093-1.14.28-.334.187-.594.447-.78.78-.187.333-.28.713-.28 1.14l-.86-.48c0-.733.16-1.38.48-1.94.32-.573.76-1.02 1.32-1.34.573-.333 1.213-.5 1.92-.5.72 0 1.36.187 1.92.56.56.36 1 .833 1.32 1.42.32.573.48 1.173.48 1.8V565h-2.2Zm-6.58 0v-9.6h2.2v9.6h-2.2Zm12.358 0v-13.6h2.2V565h-2.2Zm-2.3-7.6v-2h6.8v2h-6.8Zm8.399 7.6v-9.6h2.2v9.6h-2.2Zm2.2-5.34-.76-.38c0-1.213.266-2.193.8-2.94.546-.76 1.366-1.14 2.46-1.14.48 0 .913.087 1.3.26.386.173.746.453 1.08.84l-1.44 1.48c-.174-.187-.367-.32-.58-.4-.214-.08-.46-.12-.74-.12-.614 0-1.12.193-1.52.58-.4.387-.6.993-.6 1.82Zm10.051 5.54c-.933 0-1.78-.22-2.54-.66-.76-.453-1.366-1.06-1.82-1.82-.44-.76-.66-1.607-.66-2.54s.22-1.773.66-2.52c.454-.747 1.06-1.34 1.82-1.78.76-.453 1.607-.68 2.54-.68.947 0 1.8.22 2.56.66.76.44 1.36 1.04 1.8 1.8.454.747.68 1.587.68 2.52s-.226 1.78-.68 2.54c-.44.76-1.04 1.367-1.8 1.82-.76.44-1.613.66-2.56.66Zm0-2.12c.547 0 1.027-.12 1.44-.36.427-.253.754-.6.98-1.04.24-.44.36-.94.36-1.5s-.12-1.053-.36-1.48c-.24-.427-.566-.76-.98-1-.413-.253-.893-.38-1.44-.38-.533 0-1.013.127-1.44.38-.413.24-.74.573-.98 1-.226.427-.34.92-.34 1.48 0 .56.114 1.06.34 1.5.24.44.567.787.98 1.04.427.24.907.36 1.44.36Zm6.87 1.92v-14.4h2.2V565h-2.2Z" fill="#fff"/>
  <defs>
    <clipPath id="clip0_5914_333620">
      <path fill="#fff" transform="translate(227.619 32)" d="M0 0h192.762v44H0z"/>
    </clipPath>
  </defs>
</svg>
